<svg xmlns="http://www.w3.org/2000/svg" viewBox="0 0 1000 500"><defs><style>.cls-1{isolation:isolate;}.cls-2{opacity:0.3;}.cls-3{fill:#f3f8f3;}.cls-4{fill:none;stroke:#f3f8f3;stroke-miterlimit:10;}.cls-5,.cls-8{opacity:0.7;}.cls-6,.cls-7,.cls-8{fill:#ec6b5d;mix-blend-mode:multiply;}.cls-7{opacity:0.8;}</style></defs><title>intro</title><g class="cls-1"><g id="Layer_1" data-name="Layer 1"><g class="cls-2"><path class="cls-3" d="M730.9,196.8c-2.9,0-5.7,0-8.2-.1h-5c-11.6,0-18.9-2.1-21.4-6.1-1.5-2.4-1.4-5.4.2-8.9,5.6-11.8,25.1-33.9,42.5-34h.2c12.1,0,22.7,11.3,24.1,21.4a13.56,13.56,0,0,1-2.8,10.9c1.7,3.7,3.1,10.5-2.6,13.8C753.1,196.3,741.3,196.8,730.9,196.8Zm8.3-47.4h-.1c-16.7.1-35.5,21.6-40.9,33-1.4,2.9-1.5,5.4-.4,7.2,1.5,2.4,6.2,5.3,19.9,5.3h5c10.7.1,28.6.4,34.3-2.9,4.7-2.7,3.2-8.3,2.2-10.7a21.1,21.1,0,0,1-8.7,4.5c-14.9,4-29.1,1-38.5-1-2.9-.6-5.3-1.1-7.1-1.3a.91.91,0,1,1,.2-1.8c1.9.2,4.4.7,7.3,1.3,9.2,2,23.2,4.9,37.7,1a17.81,17.81,0,0,0,8.6-4.7,1,1,0,0,1,.4-.5h0a12.23,12.23,0,0,0,2.5-9.7C760.2,160,750.2,149.4,739.2,149.4Z"/><path class="cls-3" d="M768.4,194.6c-.4,0-1.1-.2-1.3-1.4-.9-4.4-8.3-12.8-8.3-12.9a.92.92,0,1,1,1.4-1.2c.3.3,7,8,8.5,13,1.9-3.8,5.7-18.3,6-30.1.1-3.5.5-6.7.9-9.9.6-4.9,1.1-8.9.3-12.3-5.6.4-13.9-1.5-23.2-3.7-5.3-1.2-10.9-2.5-16.2-3.5-2.7-.5-5.4-1-8-1.4-17.1-3.2-30.6-5.7-43.8,2.8a190.78,190.78,0,0,0-20.4,17.8.91.91,0,0,1-1.2.1,1,1,0,0,1-.3-1.2l1.9-3.4c9.5-17.2,16.4-29.5,31.5-29.5h0c2.4,0,6.2.3,10.9.8,6.6-2.7,13.2-4.1,19.4-3.4,29.7,3.3,57,7.9,56.3,19a5.4,5.4,0,0,1-2.1,4.2,8.06,8.06,0,0,1-3.1,1.3c.9,3.8.3,8.1-.2,12.8a74.64,74.64,0,0,0-.8,9.7c-.3,11.6-4.9,32.4-7.9,32.6ZM696,119.5c-13.4,0-19.8,10.5-28.7,26.5,7-6.7,21.2-19,36.2-26-3.1-.3-5.7-.5-7.5-.5Zm9.1,6.8c7.2,0,14.9,1.4,23.5,3,2.6.5,5.2,1,8,1.4,5.4.9,11,2.2,16.3,3.5,8.6,2,16.9,3.9,22.2,3.7-1.3-3-4.2-5.4-9.7-7-12.7-3.7-41-8.6-58.1-10.6a97.54,97.54,0,0,0-14.2,7.6A43.44,43.44,0,0,1,705.1,126.3ZM711,119c17.3,2.2,42.7,6.6,54.9,10.2,6.5,1.9,9.6,4.9,11,8.6a5.71,5.71,0,0,0,2.5-1,3.5,3.5,0,0,0,1.4-2.8c.7-10.9-39.6-15.4-54.7-17.1C721.3,116.3,716.2,117.2,711,119Z"/><path class="cls-3" d="M833.5,500a.37.37,0,0,1-.3-.1,1,1,0,0,1-.6-1.2c4.8-13.4,5.6-25,4.3-56.2-1.3-31.8,5.9-48.8,13.1-54.2,1.3-1,3.3-2.2,5.8-3.8,10.3-6.3,29.5-18.1,35.3-35.6,3.3-9.9,4.5-17.1,5.9-25.5a254.71,254.71,0,0,1,6.1-28.4c6.6-23.9,6.8-30.4,6.8-30.4a.84.84,0,0,1,.4-.7.8.8,0,0,1,.8-.1c4.9,2,9.8,1.3,13.1-1.8,4.4-4.3,5-11.9,1.8-20.4a48.17,48.17,0,0,0-4-7.9c-3.3-5.7-6-10.2-.3-18.9,4.5-7,5.6-15.2,2.6-19-1.8-2.3-5.1-2.7-9.4-1.2-11.4,4.1-11.3,28.2-11.2,44.2v7c-.2,16.8-5.9,43.1-7.5,49.1-.3,1.1-.7,2.5-1.2,4.3-2.6,9.3-7.4,26.7-8.9,37.6-4.3,31.9-36.3,45-46.9,49.4a22.44,22.44,0,0,0-2.9,1.3,31,31,0,0,0-2.7,1.6c-6.2,3.6-17.8,10.4-28.6,7.7a10.7,10.7,0,0,1-6.5-5.3c-5.5-9.5-4.2-29.7-1.9-37.9,2.6-9.5,3.6-17.7.2-29.3-2.7-9.3,2.5-16.2,6.7-21.6a33.37,33.37,0,0,0,3.5-5.1c.6-1.2.8-2.2.4-2.8-.8-1.4-4.6-1.5-8-1.6-.8,0-1.6-.1-2.4-.1-6.4-.3-6.8-13.1-7.4-27.8-.2-5.6-.4-11.3-1-16.4-.1-.7-.2-1.4-.3-2-3.2-1.4-6.1-3.3-7.5-6.3-.9-1.8-.8-3.6.2-4.7a2.77,2.77,0,0,1,3.1-.8c1.3.4,4.4,2.3,5.9,10.5,2.3.9,4.9,1.5,7.3,2.2,3.1.8,5.8,1.5,7.5,2.5,3.6,2.2,6.4.4,12.4-3.6,1.2-.8,2.6-1.7,4-2.6,7.1-4.5,8.2-9.8,3.6-17.8-3.4-6-8-15.9-12.6-39.4-4.2-21.5-4.6-57.3-4.6-57.7a1,1,0,0,1,.6-.9c2.2-.8,53.3-19.7,67-16.1,13,3.3,39.5,16.4,41,24.4a22.74,22.74,0,0,0,.7,2.8c2.3,9,7.2,27.6-23.6,39.4s-56.6,7.1-62.1,3.1c-1-.8-1.6-1.6-1.5-2.4h0a2,2,0,0,1,.3-1.1c7.2-23.9,25.8-36.7,38.9-33.7,13.9,3.2,22.7,15.7,22.8,20.3a5.17,5.17,0,0,1-1.6,3.7c-4.5,4.7-18.3,7.3-29.8,7.5-1.7,0-3.4,0-5.1.1-9.4.1-22,.2-23.6,2.7-.1.2-.1.4-.2.6s.2.4.8.8c5.1,3.7,30.5,8.1,60.4-3.3,29.2-11.2,24.8-28.1,22.5-37.2a23.77,23.77,0,0,1-.7-2.9c-1.2-6.6-26.3-19.5-39.6-22.9-12.4-3.2-59.4,13.7-65.3,15.8.1,4.9.7,36.9,4.6,56.7,4.6,23.2,9,32.9,12.4,38.8,3.2,5.6,6.2,13.7-4.3,20.3-1.5.9-2.8,1.8-4,2.6-6.1,4-9.8,6.4-14.4,3.7a30.06,30.06,0,0,0-7-2.3,58.84,58.84,0,0,1-6.5-1.9c0,.3.1.7.1,1,.6,5.1.8,10.9,1,16.5.5,12.7,1,25.8,5.7,26.1.8,0,1.6.1,2.4.1,4.2.1,8.1.3,9.5,2.5.7,1.2.6,2.6-.4,4.5a36.11,36.11,0,0,1-3.6,5.4c-3.9,5.2-8.8,11.6-6.4,20,3.5,12,2.5,20.5-.2,30.3-2.2,7.9-3.6,27.4,1.7,36.5a8.6,8.6,0,0,0,5.3,4.4c10.1,2.5,21.2-4,27.2-7.5,1.1-.6,2.1-1.2,2.8-1.6s1.6-.7,3.1-1.3c10.3-4.2,41.6-17.1,45.7-47.9,1.5-11.1,6.3-28.5,8.9-37.9.5-1.8.9-3.2,1.2-4.3,1.6-5.9,7.2-31.9,7.4-48.6v-7c-.1-17.5-.2-41.4,12.4-45.9,6.8-2.4,10.1.1,11.4,1.8,3.6,4.5,2.5,13.4-2.5,21.2s-3,11.3.4,17a52.06,52.06,0,0,1,4.1,8.2c3.5,9.2,2.7,17.6-2.2,22.4-3.5,3.4-8.6,4.4-13.9,2.6-.3,2.8-1.6,10.9-6.7,29.6a245.15,245.15,0,0,0-6,28.3c-1.4,8.4-2.6,15.7-5.9,25.7-6,18.1-25.6,30.1-36.1,36.6a64.53,64.53,0,0,0-5.7,3.7c-6.5,4.9-13.7,21.6-12.4,52.7,1.3,31.5.4,43.2-4.4,56.8C834.3,499.8,833.9,500,833.5,500ZM783.3,236.6a.91.91,0,0,0-.7.3c-.4.4-.6,1.4,0,2.8a11.52,11.52,0,0,0,5.5,4.9c-1.1-5.1-2.9-7.5-4.4-7.9C783.5,236.7,783.4,236.6,783.3,236.6ZM865,145.9c-11.4,0-25.7,11.1-32.3,30.3,4-1.6,11.9-1.8,22.8-1.9,1.7,0,3.4,0,5-.1,10.8-.2,24.4-2.7,28.5-6.9a3.3,3.3,0,0,0,1.1-2.4c-.1-4.1-8.6-15.7-21.4-18.6A16.1,16.1,0,0,0,865,145.9Z"/><path class="cls-3" d="M894.9,178a1.42,1.42,0,0,1-.6-.2.93.93,0,0,1-.1-1.3,7.61,7.61,0,0,0,1.4-7.6,5.11,5.11,0,0,0-4.8-3.1.9.9,0,1,1,0-1.8,6.82,6.82,0,0,1,6.4,4.2,9.23,9.23,0,0,1-1.7,9.5A.6.6,0,0,1,894.9,178Z"/><path class="cls-3" d="M812.1,139.4a11.11,11.11,0,0,1-4.6-.9,7.38,7.38,0,0,1-4-5.3,7.74,7.74,0,0,1,1.6-6.4c8-10.9,43.5-17.3,59.3-18.7,18.6-1.7,32.7,12.5,33.3,13.1a.92.92,0,0,1-1.3,1.3,48.94,48.94,0,0,0-4.6-3.9,2,2,0,0,1-.1.7.86.86,0,0,1-1.2.3c-15.9-9-39.4,3.2-56.5,12.2-1.3.7-2.6,1.4-3.8,2C826.4,135.7,818.4,139.4,812.1,139.4Zm55.3-29.6a26.2,26.2,0,0,0-2.8.1c-15,1.3-50.4,7.7-58,18a6.07,6.07,0,0,0-1.3,4.9,5.11,5.11,0,0,0,3,4c3.9,1.9,11.8.1,21-4.7,1.2-.6,2.5-1.3,3.8-2,17-8.9,40.1-20.9,56.7-13C884.5,113.8,876.6,109.8,867.4,109.8Z"/><path class="cls-3" d="M794.4,330.5c-14.1,0-24.2-7-30.4-11.3-2.4-1.7-4.4-3.1-5.3-3.1-4.4,0-6.4-.6-6.8-2.1-.5-2,2.7-4.3,8.3-7.4,3.3-1.8,5.6-4.5,8.9-8.2,1.9-2.1,4-4.5,6.7-7.2,5.9-5.9,11.6-4.8,19.9-.7a.89.89,0,0,1-.8,1.6c-7.9-3.9-12.6-4.9-17.8.3-2.7,2.7-4.8,5.1-6.6,7.2-3.2,3.7-5.8,6.6-9.4,8.6-6.8,3.8-7.5,5-7.5,5.4,0,0,.5.7,5.1.7,1.5,0,3.4,1.4,6.4,3.4,6.4,4.5,17.1,11.9,32.1,10.9,27-1.8,31.5-11.7,34.8-19,1.1-2.4,2.1-4.6,3.8-6-1.5-1.6-3-3.3-4.6-5.1-3.5-3.9-7.1-8-10-10.4-6.1-5-13.5,1.2-17.9,4.9a.92.92,0,0,1-1.2-1.4c4.5-3.8,13-11,20.2-5,3,2.5,6.6,6.6,10.2,10.6,1.6,1.8,3.3,3.7,4.8,5.3a10.62,10.62,0,0,1,5.8-.4c2.9.5,4.8,1.8,5.3,3.6a3.32,3.32,0,0,1-1.1,3.4,4.18,4.18,0,0,1-4.7.3c-1.5-.7-3.4-2.5-5.6-4.7-1.4,1.1-2.3,3-3.4,5.4-3.3,7.2-8.2,18.2-36.3,20.1A15,15,0,0,1,794.4,330.5ZM838.6,304c1.9,1.9,3.5,3.4,4.7,3.9a2.54,2.54,0,0,0,2.8-.1,1.42,1.42,0,0,0,.5-1.6c-.3-1.1-1.7-1.9-3.9-2.3A10.87,10.87,0,0,0,838.6,304Z"/><path class="cls-3" d="M752.8,314.5a.89.89,0,0,1-.8-.5.87.87,0,0,1,.4-1.2c.4-.2,35.6-18,85.5-9.3a.92.92,0,1,1-.4,1.8c-49.3-8.6-84,9-84.4,9.2Z"/></g><g class="cls-2"><path class="cls-4" d="M0,1.91c83.3,0,83.3,60,166.7,60s83.3-60,166.6-60,83.3,60,166.7,60,83.3-60,166.7-60,83.3,60,166.6,60,83.3-60,166.7-60"/></g><g class="cls-5"><rect class="cls-6" x="161.58" y="59.91" width="10" height="4" rx="2" ry="2"/></g><g class="cls-5"><rect class="cls-7" x="661.58" width="10" height="4" rx="2" ry="2"/></g><rect class="cls-8" x="889.85" y="44.5" width="10" height="4" rx="2" ry="2" transform="translate(86.55 433.23) rotate(-28.54)"/><g class="cls-5"><rect class="cls-6" x="409.16" y="22.99" width="4" height="10" rx="2" ry="2" transform="translate(151.55 348.06) rotate(-54.85)"/></g></g></g></svg>