<svg xmlns="http://www.w3.org/2000/svg" viewBox="0 0 21.82 32"><defs><style>.cls-1{isolation:isolate;}.cls-2{mix-blend-mode:multiply;}.cls-3{fill:#ec6b5d;}</style></defs><g class="cls-1"><g id="Layer_2" data-name="Layer 2"><g id="Layer_1-2" data-name="Layer 1"><g class="cls-2"><path class="cls-3" d="M5.58,7.25H4.5c-1,0-1.54-.17-1.75-.5a.73.73,0,0,1,0-.73c.46-1,2.05-2.77,3.47-2.78h0A2.13,2.13,0,0,1,8.22,5,1.14,1.14,0,0,1,8,5.87.83.83,0,0,1,7.78,7,5.93,5.93,0,0,1,5.58,7.25Zm.67-3.87h0c-1.36,0-2.89,1.76-3.34,2.69a.59.59,0,0,0,0,.59c.12.19.5.43,1.62.43h.41a8.41,8.41,0,0,0,2.8-.23c.38-.22.26-.68.17-.88a1.55,1.55,0,0,1-.71.37A6.47,6.47,0,0,1,4,6.27a5.06,5.06,0,0,0-.58-.1.08.08,0,0,1-.07-.08A.07.07,0,0,1,3.46,6a5.3,5.3,0,0,1,.6.11,6.43,6.43,0,0,0,3.07.08,1.44,1.44,0,0,0,.71-.39,0,0,0,0,1,0,0h0A1,1,0,0,0,8.08,5,2,2,0,0,0,6.25,3.38Z"/><path class="cls-3" d="M8.64,7.07s-.09,0-.11-.12a3.84,3.84,0,0,0-.68-1,.07.07,0,0,1,0-.11.08.08,0,0,1,.1,0,4.09,4.09,0,0,1,.7,1.06A8.08,8.08,0,0,0,9.14,4.4c0-.28,0-.55.07-.81a3.13,3.13,0,0,0,0-1,7.15,7.15,0,0,1-1.9-.3C6.9,2.19,6.45,2.08,6,2l-.66-.12C4,1.63,2.87,1.43,1.79,2.12A13.86,13.86,0,0,0,.13,3.57a.08.08,0,0,1-.1,0,.08.08,0,0,1,0-.1L.17,3.2C.94,1.8,1.5.79,2.73.79h0a7.27,7.27,0,0,1,.88.07A3.37,3.37,0,0,1,5.2.57c2.43.28,4.66.65,4.6,1.56a.44.44,0,0,1-.17.34.63.63,0,0,1-.25.1,3.05,3.05,0,0,1,0,1c0,.26-.06.52-.07.79,0,.95-.39,2.65-.64,2.67ZM2.73.94C1.64.94,1.12,1.79.39,3.1A12.51,12.51,0,0,1,3.34,1a5.23,5.23,0,0,0-.6,0Zm.74.56a10.82,10.82,0,0,1,1.92.24L6,1.86c.44.08.9.18,1.33.29a8.48,8.48,0,0,0,1.82.3,1.13,1.13,0,0,0-.8-.58A38.58,38.58,0,0,0,3.65,1a7.22,7.22,0,0,0-1.16.62A3.56,3.56,0,0,1,3.47,1.5ZM4,.89a37.78,37.78,0,0,1,4.49.84,1.26,1.26,0,0,1,.9.7.52.52,0,0,0,.2-.08.27.27,0,0,0,.11-.23C9.71,1.23,6.42.86,5.19.72A3,3,0,0,0,4,.89Z"/><path class="cls-3" d="M14,32h0a.07.07,0,0,1,0-.1c.38-1.09.46-2,.35-4.58s.48-4,1.07-4.43l.48-.31c.84-.51,2.41-1.48,2.88-2.9a13,13,0,0,0,.48-2.08,21,21,0,0,1,.49-2.32,13.24,13.24,0,0,0,.55-2.48.1.1,0,0,1,0-.07h.07a1,1,0,0,0,1.06-.15,1.55,1.55,0,0,0,.15-1.67,4.35,4.35,0,0,0-.33-.65,1.2,1.2,0,0,1,0-1.54,1.5,1.5,0,0,0,.21-1.56c-.15-.19-.41-.22-.76-.1-.94.34-.93,2.31-.92,3.61v.57a22.08,22.08,0,0,1-.61,4c0,.08-.06.2-.1.35a28.26,28.26,0,0,0-.72,3.07c-.35,2.6-3,3.68-3.82,4l-.24.1-.23.13a3.33,3.33,0,0,1-2.33.63.83.83,0,0,1-.52-.43A5.18,5.18,0,0,1,11,20a3.88,3.88,0,0,0,0-2.39,1.92,1.92,0,0,1,.54-1.76,2.28,2.28,0,0,0,.29-.42c0-.1.06-.17,0-.22s-.38-.13-.65-.14H11c-.51,0-.55-1.07-.6-2.27,0-.46,0-.93-.08-1.34a1,1,0,0,1,0-.16,1.13,1.13,0,0,1-.62-.51.36.36,0,0,1,0-.39.23.23,0,0,1,.25-.07c.11,0,.36.19.48.86a4.43,4.43,0,0,0,.59.18,2.23,2.23,0,0,1,.62.21c.29.17.52,0,1-.3L13,11.1c.58-.37.67-.8.3-1.46a10.21,10.21,0,0,1-1-3.21,32.79,32.79,0,0,1-.38-4.71.08.08,0,0,1,.05-.07c.18-.06,4.35-1.6,5.47-1.32s3.23,1.35,3.35,2c0,.07,0,.15.05.23.19.73.59,2.26-1.92,3.22s-4.63.58-5.07.25a.25.25,0,0,1-.13-.2h0a.29.29,0,0,1,0-.09c.59-2,2.11-3,3.18-2.75a2.56,2.56,0,0,1,1.87,1.66.45.45,0,0,1-.13.31,4.32,4.32,0,0,1-2.43.61h-.42c-.76,0-1.79,0-1.93.23v0a.15.15,0,0,0,.06.07,6.8,6.8,0,0,0,4.93-.27c2.39-.92,2-2.3,1.84-3a1.4,1.4,0,0,1-.06-.24c-.1-.54-2.15-1.59-3.24-1.87S12.48,1.6,12,1.77a32.84,32.84,0,0,0,.38,4.63,9.83,9.83,0,0,0,1,3.17A1.08,1.08,0,0,1,13,11.22l-.33.21c-.49.33-.79.53-1.17.3a2.9,2.9,0,0,0-.57-.19,5.26,5.26,0,0,1-.53-.15.19.19,0,0,0,0,.08c0,.42.06.89.08,1.35,0,1,.08,2.11.46,2.13h.2c.34,0,.66,0,.77.21a.36.36,0,0,1,0,.37,3.14,3.14,0,0,1-.3.44,1.8,1.8,0,0,0-.52,1.63,4.06,4.06,0,0,1,0,2.47,5,5,0,0,0,.13,3,.69.69,0,0,0,.44.36,3.2,3.2,0,0,0,2.22-.61l.23-.13.25-.11c.84-.34,3.4-1.39,3.73-3.91a28.06,28.06,0,0,1,.73-3.09c0-.15.07-.27.1-.35a22.78,22.78,0,0,0,.6-4v-.57c0-1.42,0-3.38,1-3.75.55-.19.82,0,.93.15a1.62,1.62,0,0,1-.2,1.73,1.05,1.05,0,0,0,0,1.39,4.6,4.6,0,0,1,.34.67,1.7,1.7,0,0,1-.18,1.83,1.1,1.1,0,0,1-1.14.21,15.31,15.31,0,0,1-.55,2.42,23,23,0,0,0-.49,2.31,12.59,12.59,0,0,1-.48,2.1c-.49,1.47-2.09,2.45-2.94,3a5.06,5.06,0,0,0-.47.3c-.53.4-1.12,1.76-1,4.3s0,3.52-.36,4.64A.08.08,0,0,1,14,32ZM9.85,10.5l-.06,0s0,.11,0,.22a.86.86,0,0,0,.44.4c-.09-.42-.24-.61-.35-.64Zm6.67-7.41a3.29,3.29,0,0,0-2.64,2.48,6.63,6.63,0,0,1,1.86-.16h.41a4.17,4.17,0,0,0,2.33-.57.28.28,0,0,0,.09-.19,2.43,2.43,0,0,0-1.75-1.52A1,1,0,0,0,16.52,3.09Z"/><path class="cls-3" d="M19,5.71s0,0,0,0a.08.08,0,0,1,0-.1A.6.6,0,0,0,19,5a.42.42,0,0,0-.39-.25.07.07,0,0,1-.07-.08.07.07,0,0,1,.07-.07.57.57,0,0,1,.53.34.77.77,0,0,1-.14.78A.07.07,0,0,1,19,5.71Z"/><path class="cls-3" d="M12.21,2.57a.92.92,0,0,1-.38-.08.58.58,0,0,1-.32-.43.6.6,0,0,1,.13-.52C12.29.65,15.18.13,16.48,0A3.71,3.71,0,0,1,19.2,1.08a.08.08,0,1,1-.11.11,2.7,2.7,0,0,0-.38-.32.06.06,0,0,1,0,.06.09.09,0,0,1-.11,0C17.31.22,15.39,1.22,14,2l-.31.16A3.86,3.86,0,0,1,12.21,2.57ZM16.72.15h-.23c-1.22.11-4.12.63-4.73,1.47a.47.47,0,0,0-.11.4.45.45,0,0,0,.24.33A2.35,2.35,0,0,0,13.61,2l.31-.17c1.39-.72,3.27-1.7,4.63-1A3.35,3.35,0,0,0,16.72.15Z"/><path class="cls-3" d="M10.76,18.16a4.17,4.17,0,0,1-2.48-.93A1.5,1.5,0,0,0,7.84,17c-.36,0-.52-.05-.55-.17s.21-.35.68-.61a2.77,2.77,0,0,0,.72-.67c.15-.17.33-.37.55-.59.48-.48.94-.39,1.62,0a.07.07,0,0,1,0,.1.07.07,0,0,1-.1,0c-.65-.32-1-.4-1.46,0l-.54.58a2.9,2.9,0,0,1-.76.7c-.55.31-.61.41-.61.44s0,.06.41.06a1.2,1.2,0,0,1,.52.28A4,4,0,0,0,11,18c2.21-.14,2.58-.95,2.84-1.55a1.42,1.42,0,0,1,.31-.49l-.37-.41a7.55,7.55,0,0,0-.82-.85c-.49-.42-1.1.09-1.46.4a.07.07,0,0,1-.1,0,.08.08,0,0,1,0-.11c.37-.31,1.06-.89,1.65-.4a9,9,0,0,1,.83.87l.39.43a.9.9,0,0,1,.48,0,.49.49,0,0,1,.43.3.27.27,0,0,1-.09.28.38.38,0,0,1-.39,0,1.77,1.77,0,0,1-.45-.39,1.12,1.12,0,0,0-.28.45c-.27.59-.67,1.48-3,1.63ZM14.37,16a1.51,1.51,0,0,0,.39.32.19.19,0,0,0,.22,0,.12.12,0,0,0,0-.12c0-.09-.14-.16-.32-.19A.77.77,0,0,0,14.37,16Z"/><path class="cls-3" d="M7.36,16.86a.08.08,0,0,1-.06,0,.07.07,0,0,1,0-.1,12,12,0,0,1,7-.77.08.08,0,0,1,0,.15,11.74,11.74,0,0,0-6.88.75Z"/></g></g></g></g></svg>