<svg xmlns="http://www.w3.org/2000/svg" viewBox="0 0 394 394"><defs><style>.cls-1{opacity:0.3;}.cls-2,.cls-5{fill:#fff;}.cls-3{font-size:80px;fill:#ec6b5d;font-family:MyriadPro-Regular, Myriad Pro;}.cls-4{letter-spacing:0.1em;}.cls-5{font-size:50px;}</style></defs><g id="Layer_2" data-name="Layer 2"><g id="Layer_1-2" data-name="Layer 1"><g class="cls-1"><path d="M197,15A182,182,0,0,1,325.69,325.69,182,182,0,1,1,68.31,68.31,180.78,180.78,0,0,1,197,15m0-15C88.2,0,0,88.2,0,197S88.2,394,197,394s197-88.2,197-197S305.8,0,197,0Z"/></g><path class="cls-2" d="M197.5,0H197V15h.5A182,182,0,0,1,325.69,325.69,182,182,0,1,1,126.14,29.31q5.31-2.25,10.74-4.15a7.49,7.49,0,0,0,4.42-10h0A7.51,7.51,0,0,0,131.88,11q-5.88,2.06-11.59,4.47A197.06,197.06,0,0,0,0,195.09C-1,305.45,89.76,395.68,200.11,394,307.47,392.32,394,304.76,394,197,394,88.37,306.07.27,197.5,0Z"/><text class="cls-3" transform="translate(124.28 220.48)">9<tspan class="cls-4" x="41.04" y="0">6</tspan><tspan class="cls-5" x="90.08" y="0">%</tspan></text></g></g></svg>