<svg xmlns="http://www.w3.org/2000/svg" viewBox="0 0 394 394"><defs><style>.cls-1{opacity:0.3;}.cls-2{fill:#fff;}.cls-3{font-size:80px;fill:#ec6b5d;font-family:MyriadPro-Regular, Myriad Pro;}</style></defs><g id="Layer_2" data-name="Layer 2"><g id="Layer_1-2" data-name="Layer 1"><g class="cls-1"><path d="M197,15A182,182,0,0,1,325.69,325.7,182,182,0,1,1,68.31,68.31,180.78,180.78,0,0,1,197,15m0-15C88.2,0,0,88.2,0,197S88.2,394,197,394s197-88.2,197-197S305.8,0,197,0Z"/></g><path class="cls-2" d="M197.5,0H197V15h.5A182,182,0,0,1,325.69,325.69,182,182,0,1,1,78.56,58.77a7.46,7.46,0,0,0,.89-10.36h0a7.5,7.5,0,0,0-10.72-.92A196.47,196.47,0,0,0,0,195.09C-1,305.45,89.76,395.68,200.11,394,307.47,392.32,394,304.76,394,197,394,88.37,306.07.27,197.5,0Z"/><text class="cls-3" transform="translate(124.28 220.48)">88<tspan class="cls-2" x="82.08" y="0">%</tspan></text></g></g></svg>