<svg xmlns="http://www.w3.org/2000/svg" viewBox="0 0 394 394"><defs><style>.cls-1{opacity:0.3;}.cls-2{fill:#fff;}.cls-3{font-size:80px;fill:#ec6b5d;font-family:MyriadPro-Regular, Myriad Pro;}</style></defs><g id="Layer_2" data-name="Layer 2"><g id="Layer_1-2" data-name="Layer 1"><g class="cls-1"><path d="M197,15A182,182,0,0,1,325.69,325.69,182,182,0,1,1,68.31,68.31,180.78,180.78,0,0,1,197,15m0-15C88.2,0,0,88.2,0,197S88.2,394,197,394s197-88.2,197-197S305.8,0,197,0Z"/></g><path class="cls-2" d="M197.5,0H197V15h.5A182,182,0,0,1,325.69,325.69a182.45,182.45,0,0,1-188.86,43.17,7.39,7.39,0,0,0-9.18,3.84l-.05.11a7.37,7.37,0,0,0,4.27,10.05A195.35,195.35,0,0,0,200.11,394C307.47,392.32,394,304.76,394,197,394,88.37,306.07.27,197.5,0Z"/><text class="cls-3" transform="translate(124.28 220.48)">57<tspan class="cls-2" x="82.08" y="0">%</tspan></text></g></g></svg>