<svg width="25" height="25" viewBox="0 0 25 25" fill="none" xmlns="http://www.w3.org/2000/svg">
<path d="M12.4999 4.16667C12.4999 4.16667 5.98486 4.16663 4.35986 4.60205C3.46299 4.84163 2.75822 5.54744 2.51864 6.44328C2.08322 8.06828 2.08325 12.5 2.08325 12.5C2.08325 12.5 2.08322 16.9317 2.51864 18.5567C2.75822 19.4536 3.46403 20.1584 4.35986 20.3979C5.98486 20.8334 12.4999 20.8333 12.4999 20.8333C12.4999 20.8333 19.015 20.8334 20.64 20.3979C21.5358 20.1584 22.2416 19.4526 22.4812 18.5567C22.9166 16.9317 22.9166 12.5 22.9166 12.5C22.9166 12.5 22.9166 8.06828 22.4812 6.44328C22.2416 5.54744 21.5358 4.84163 20.64 4.60205C19.015 4.16663 12.4999 4.16667 12.4999 4.16667ZM12.4999 6.25C15.502 6.25 19.2612 6.38918 20.1008 6.61418C20.2769 6.66105 20.4212 6.80534 20.4691 6.98242C20.7201 7.91784 20.8333 10.7729 20.8333 12.5C20.8333 14.2271 20.7201 17.0811 20.4691 18.0176C20.4222 18.1936 20.2779 18.3379 20.1008 18.3858C19.2623 18.6108 15.502 18.75 12.4999 18.75C9.49888 18.75 5.73963 18.6108 4.89901 18.3858C4.72297 18.3389 4.57868 18.1947 4.53076 18.0176C4.27972 17.0822 4.16659 14.2271 4.16659 12.5C4.16659 10.7729 4.27972 7.91789 4.53076 6.98039C4.57764 6.80539 4.72192 6.66105 4.89901 6.61418C5.73755 6.38918 9.49784 6.25 12.4999 6.25ZM10.4166 8.89079V16.1092L16.6666 12.5L10.4166 8.89079Z" fill="#091526"/>
</svg>
