<svg width="21" height="19" viewBox="0 0 21 19" fill="none" xmlns="http://www.w3.org/2000/svg">
<g clip-path="url(#clip0_33_169)">
<path d="M4.46619 7.02092C4.28378 7.02585 4.11051 7.10179 3.98326 7.23257C3.85601 7.36336 3.78485 7.53864 3.78491 7.72112C3.81249 7.88944 3.899 8.04248 4.029 8.15291C4.15899 8.26334 4.32401 8.32397 4.49457 8.32397C4.66514 8.32397 4.83016 8.26334 4.96015 8.15291C5.09015 8.04248 5.17666 7.88944 5.20423 7.72112C5.20437 7.62589 5.18509 7.53164 5.14756 7.44412C5.11003 7.35661 5.05504 7.27766 4.98596 7.21212C4.91687 7.14658 4.83515 7.09582 4.74578 7.06295C4.65641 7.03007 4.56127 7.01577 4.46619 7.02092Z" fill="#062542"/>
<path d="M11.4491 6.94522C11.2994 6.94522 11.153 6.98961 11.0286 7.07279C10.9041 7.15597 10.8071 7.27419 10.7498 7.41251C10.6925 7.55083 10.6775 7.70303 10.7067 7.84987C10.7359 7.99671 10.808 8.13159 10.9139 8.23745C11.0197 8.34332 11.1546 8.41541 11.3014 8.44462C11.4483 8.47383 11.6005 8.45884 11.7388 8.40154C11.8771 8.34425 11.9953 8.24723 12.0785 8.12274C12.1617 7.99826 12.2061 7.85191 12.2061 7.70219C12.2061 7.50143 12.1263 7.30889 11.9844 7.16693C11.8424 7.02497 11.6499 6.94522 11.4491 6.94522Z" fill="#062542"/>
<path d="M17.751 0H2.74402C2.01626 0 1.31831 0.289102 0.803706 0.803706C0.289102 1.31831 7.92308e-10 2.01626 7.92307e-10 2.74402L7.92307e-10 11.6574C-8.66692e-06 12.0168 0.0711003 12.3727 0.209231 12.7046C0.347362 13.0365 0.549785 13.3377 0.804842 13.591C1.0599 13.8443 1.36255 14.0447 1.69536 14.1805C2.02817 14.3163 2.38457 14.385 2.74402 14.3825H8.04283L9.93526 18.6404C9.93526 18.6404 10.0677 19 10.3705 19C10.6733 19 10.7869 18.6404 10.7869 18.6404L12.49 14.3825H17.751C18.1104 14.385 18.4668 14.3163 18.7997 14.1805C19.1325 14.0447 19.4351 13.8443 19.6902 13.591C19.9452 13.3377 20.1477 13.0365 20.2858 12.7046C20.4239 12.3727 20.495 12.0168 20.495 11.6574V2.74402C20.495 2.01626 20.2059 1.31831 19.6913 0.803706C19.1767 0.289102 18.4788 0 17.751 0ZM6.39641 7.87251C6.39149 8.31768 6.21247 8.74322 5.89767 9.05802C5.58287 9.37283 5.15732 9.55185 4.71215 9.55677C4.3587 9.53588 4.02676 9.38007 3.78486 9.12151V9.46215H2.49801V4.35259H3.78486V6.24502C4.06872 5.75299 4.90139 5.77191 4.90139 5.77191C5.14349 5.80128 5.37695 5.88012 5.58729 6.00352C5.79763 6.12692 5.98036 6.29226 6.12411 6.48925C6.26786 6.68624 6.36957 6.91069 6.42293 7.14865C6.47628 7.38661 6.48014 7.633 6.43426 7.87251H6.39641ZM8.55378 5.98008V9.46215H7.3994V5.999C7.3994 5.5259 6.81275 5.39343 6.81275 5.39343V4.18227C7.05144 4.16215 7.29164 4.19436 7.5166 4.27664C7.74156 4.35892 7.94585 4.4893 8.11523 4.65868C8.2846 4.82805 8.41498 5.03235 8.49726 5.25731C8.57955 5.48226 8.61175 5.72247 8.59163 5.96116L8.55378 5.98008ZM11.4114 9.5757C11.1597 9.58326 10.909 9.54053 10.6741 9.45C10.4391 9.35948 10.2246 9.22298 10.0431 9.0485C9.86157 8.87402 9.71669 8.66508 9.61693 8.4339C9.51718 8.20272 9.46455 7.95396 9.46215 7.70219C9.46151 7.44212 9.51449 7.18471 9.61776 6.94603C9.72104 6.70735 9.87241 6.49251 10.0624 6.31494C10.2524 6.13736 10.477 6.00085 10.7221 5.91394C10.9672 5.82702 11.2276 5.79156 11.4871 5.80976C11.745 5.79426 12.0033 5.83173 12.2462 5.91987C12.489 6.00801 12.7113 6.14494 12.8992 6.32224C13.0872 6.49954 13.2368 6.71344 13.3389 6.95077C13.441 7.1881 13.4935 7.44382 13.493 7.70219C13.4887 7.96078 13.4314 8.21573 13.3247 8.45131C13.218 8.68689 13.0641 8.8981 12.8726 9.07189C12.681 9.24568 12.4559 9.37837 12.2111 9.46177C11.9663 9.54517 11.707 9.5775 11.4492 9.55677L11.4114 9.5757ZM17.9781 9.5757C17.9884 9.80725 17.9514 10.0385 17.8692 10.2552C17.787 10.4719 17.6615 10.6696 17.5003 10.8362C17.3391 11.0027 17.1456 11.1346 16.9316 11.2237C16.7176 11.3129 16.4877 11.3574 16.256 11.3546H15.7072V10.1624H16.0289C16.0289 10.1624 16.7859 10.1624 16.7669 9.08367C16.7669 9.08367 16.6345 9.55677 15.5747 9.55677C15.173 9.53284 14.7953 9.35742 14.5178 9.0659C14.2403 8.77439 14.0838 8.38849 14.0797 7.98606V7.43725C14.0988 7.00525 14.2815 6.5967 14.5908 6.29447C14.9001 5.99223 15.3127 5.81895 15.745 5.80976C15.9453 5.79312 16.1467 5.82582 16.3314 5.905C16.5162 5.98417 16.6787 6.10742 16.8048 6.26394V5.90438H18.0159L17.9781 9.5757Z" fill="#062542"/>
<path d="M16.1045 6.96414C15.9088 6.96414 15.721 7.0419 15.5826 7.18031C15.4442 7.31872 15.3665 7.50645 15.3665 7.70219C15.3665 7.89793 15.4442 8.08566 15.5826 8.22407C15.721 8.36248 15.9088 8.44024 16.1045 8.44024C16.3002 8.44024 16.488 8.36248 16.6264 8.22407C16.7648 8.08566 16.8426 7.89793 16.8426 7.70219C16.8426 7.50645 16.7648 7.31872 16.6264 7.18031C16.488 7.0419 16.3002 6.96414 16.1045 6.96414Z" fill="#062542"/>
</g>
<defs>
<clipPath id="clip0_33_169">
<rect width="20.495" height="19" fill="white"/>
</clipPath>
</defs>
</svg>
