<svg width="20" height="18" viewBox="0 0 20 18" fill="none" xmlns="http://www.w3.org/2000/svg">
<g clip-path="url(#clip0_57_28)">
<path d="M7.12817 8.39231H8.25165L7.68991 6.79619L7.12817 8.39231Z" fill="#091526"/>
<path d="M9.75305 0C4.36636 0 0 3.44264 0 7.6899C0 10.4358 1.82588 12.8478 4.57174 14.2057C4.42263 14.7205 3.61144 17.5198 3.57956 17.7402C3.57956 17.7402 3.55986 17.9053 3.66677 17.9681C3.70254 17.9862 3.74162 17.9967 3.78161 17.9991C3.8216 18.0015 3.86166 17.9958 3.89934 17.9822C4.20694 17.939 7.46296 15.6555 8.02563 15.2626C8.59798 15.3421 9.17521 15.3812 9.75305 15.3798C15.1397 15.3798 19.5061 11.9372 19.5061 7.6899C19.5061 3.44264 15.1397 0 9.75305 0ZM4.92623 6.49609C4.91404 7.58393 4.93561 8.72804 4.91779 9.799C4.91216 10.1413 4.71522 10.2435 4.44889 10.341C4.4188 10.3517 4.38639 10.3539 4.35511 10.3476C4.05033 10.2876 3.80744 10.1788 3.79994 9.79994C3.77837 8.72992 3.8065 7.58393 3.7915 6.49609C3.5336 6.48578 3.16599 6.50641 2.92685 6.49609C2.59487 6.47452 2.36418 6.26352 2.37824 5.94936C2.39231 5.6352 2.56018 5.40919 2.93248 5.40356C3.81213 5.39043 4.90184 5.39043 5.78149 5.40356C6.15661 5.40919 6.32354 5.63614 6.33479 5.94936C6.34605 6.26258 6.1191 6.47452 5.78806 6.49609C5.55174 6.50641 5.18506 6.48578 4.92623 6.49609ZM9.6527 10.2895C9.54021 10.3407 9.41806 10.3672 9.29447 10.3673C9.06002 10.3673 8.8809 10.2735 8.82557 10.1188L8.54423 9.38918H6.83182L6.55048 10.1188C6.49609 10.2716 6.31697 10.3673 6.08159 10.3673C5.95828 10.3673 5.83642 10.3408 5.72429 10.2895C5.56862 10.2182 5.41951 10.0213 5.59018 9.49047L6.93967 5.94748C6.99626 5.79142 7.09762 5.65551 7.23107 5.55676C7.36451 5.45801 7.52411 5.40081 7.6899 5.39231C7.85557 5.40172 8.01486 5.45939 8.14817 5.5582C8.28147 5.65701 8.38296 5.79265 8.44014 5.94842L9.78493 9.48953C9.95655 10.0213 9.80744 10.2219 9.6527 10.2895ZM12.4961 10.2895H10.6908C10.551 10.2922 10.4158 10.2395 10.3148 10.1429C10.2137 10.0462 10.1551 9.91347 10.1516 9.77368V5.95499C10.1576 5.80666 10.2207 5.66641 10.3278 5.56358C10.4349 5.46076 10.5776 5.40333 10.726 5.40333C10.8745 5.40333 11.0171 5.46076 11.1242 5.56358C11.2313 5.66641 11.2944 5.80666 11.3004 5.95499V9.26071H12.4961C12.5664 9.25646 12.6369 9.26665 12.7032 9.29066C12.7694 9.31466 12.8301 9.35196 12.8814 9.40027C12.9327 9.44858 12.9736 9.50688 13.0016 9.57158C13.0295 9.63628 13.0439 9.70601 13.0439 9.77649C13.0439 9.84697 13.0295 9.9167 13.0016 9.9814C12.9736 10.0461 12.9327 10.1044 12.8814 10.1527C12.8301 10.201 12.7694 10.2383 12.7032 10.2623C12.6369 10.2863 12.5664 10.2965 12.4961 10.2923V10.2895ZM16.9037 9.86558C16.8891 9.97658 16.8417 10.0807 16.7675 10.1646C16.6934 10.2485 16.5959 10.3084 16.4876 10.3365C16.3792 10.3647 16.2649 10.36 16.1593 10.3229C16.0537 10.2857 15.9615 10.2179 15.8947 10.1282L14.5752 8.38106L14.3801 8.57612V9.80369C14.3801 9.95292 14.3208 10.096 14.2153 10.2016C14.1098 10.3071 13.9667 10.3664 13.8174 10.3664C13.6682 10.3664 13.5251 10.3071 13.4196 10.2016C13.314 10.096 13.2548 9.95292 13.2548 9.80369V5.95874C13.2548 5.80951 13.314 5.66639 13.4196 5.56086C13.5251 5.45534 13.6682 5.39606 13.8174 5.39606C13.9667 5.39606 14.1098 5.45534 14.2153 5.56086C14.3208 5.66639 14.3801 5.80951 14.3801 5.95874V7.16474L15.95 5.59487C15.9911 5.55424 16.0399 5.5222 16.0935 5.50062C16.1471 5.47904 16.2045 5.46837 16.2623 5.46921C16.4028 5.4729 16.537 5.52836 16.6391 5.62494C16.7412 5.72152 16.8041 5.85241 16.8156 5.9925C16.8206 6.05501 16.8123 6.11788 16.7911 6.17691C16.7699 6.23593 16.7364 6.28976 16.6927 6.33479L15.4079 7.61676L16.7931 9.45202C16.8827 9.57105 16.9215 9.7208 16.9009 9.8684L16.9037 9.86558Z" fill="#091526"/>
</g>
<defs>
<clipPath id="clip0_57_28">
<rect width="19.5061" height="18" fill="white"/>
</clipPath>
</defs>
</svg>
