<svg width="198" height="60" viewBox="0 0 198 60" fill="none" xmlns="http://www.w3.org/2000/svg">
<g clip-path="url(#clip0_114_2)">
<path d="M42.3788 60H8.72802C6.41403 59.9974 4.19557 59.0788 2.55933 57.4457C0.923085 55.8127 0.00267051 53.5985 0 51.2891L0 32.2256C0 31.9131 0.124379 31.6134 0.345776 31.3925C0.567173 31.1715 0.867451 31.0474 1.18055 31.0474H12.7439C13.057 31.0474 13.3573 31.1715 13.5787 31.3925C13.8001 31.6134 13.9245 31.9131 13.9245 32.2256C13.9245 32.5381 13.8001 32.8378 13.5787 33.0588C13.3573 33.2797 13.057 33.4039 12.7439 33.4039H2.36111V51.2891C2.36378 52.9726 3.03576 54.5863 4.2295 55.7758C5.42324 56.9654 7.04116 57.6335 8.72802 57.6335H42.3788C42.6744 57.6607 42.9491 57.7972 43.1491 58.016C43.3491 58.2349 43.46 58.5205 43.46 58.8167C43.46 59.113 43.3491 59.3986 43.1491 59.6174C42.9491 59.8363 42.6744 59.9728 42.3788 60Z" fill="#062542"/>
<path d="M25.2759 34.854H18.1724V46.3746H25.2759V34.854Z" fill="#F2E1AB"/>
<path d="M25.2759 47.0193H18.1623C17.9928 47.0166 17.8311 46.9476 17.7122 46.827C17.5932 46.7064 17.5266 46.544 17.5266 46.3748V34.8541C17.5319 34.6894 17.6011 34.5331 17.7198 34.4185C17.8384 34.3038 17.9971 34.2397 18.1623 34.2398H25.2254C25.3106 34.2385 25.3952 34.2542 25.4742 34.2861C25.5531 34.318 25.6249 34.3654 25.6851 34.4256C25.7453 34.4857 25.7929 34.5573 25.8248 34.6361C25.8568 34.7149 25.8726 34.7993 25.8712 34.8843V46.3748C25.8717 46.5373 25.8106 46.6941 25.7002 46.8136C25.5898 46.9331 25.4383 47.0066 25.2759 47.0193ZM18.8182 45.7303H24.6301V35.4986H18.8182V45.7303Z" fill="#062542"/>
<path d="M31.5521 18.5096C34.0765 18.5096 36.1229 16.4672 36.1229 13.9477C36.1229 11.4282 34.0765 9.38574 31.5521 9.38574C29.0276 9.38574 26.9812 11.4282 26.9812 13.9477C26.9812 16.4672 29.0276 18.5096 31.5521 18.5096Z" fill="#F2E1AB"/>
<path d="M31.5521 19.1341C30.5203 19.1341 29.5117 18.8287 28.6539 18.2566C27.796 17.6845 27.1274 16.8714 26.7325 15.9201C26.3377 14.9687 26.2344 13.9219 26.4357 12.9119C26.637 11.902 27.1338 10.9743 27.8634 10.2461C28.5929 9.51799 29.5224 9.02213 30.5344 8.82123C31.5463 8.62034 32.5952 8.72345 33.5484 9.11751C34.5016 9.51157 35.3163 10.1789 35.8896 11.0351C36.4628 11.8913 36.7687 12.8979 36.7687 13.9276C36.7661 15.3077 36.2156 16.6304 35.2379 17.6062C34.2601 18.582 32.9348 19.1314 31.5521 19.1341ZM31.5521 10.0102C30.7758 10.0102 30.0169 10.24 29.3714 10.6704C28.7259 11.1009 28.2229 11.7127 27.9258 12.4285C27.6287 13.1443 27.551 13.932 27.7024 14.6919C27.8539 15.4518 28.2277 16.1498 28.7766 16.6977C29.3256 17.2455 30.0249 17.6186 30.7863 17.7698C31.5477 17.9209 32.3369 17.8434 33.0542 17.5469C33.7714 17.2504 34.3844 16.7483 34.8157 16.104C35.247 15.4598 35.4772 14.7024 35.4772 13.9276C35.4613 12.8992 35.0407 11.9182 34.3064 11.1966C33.572 10.4749 32.5827 10.0705 31.5521 10.0706V10.0102Z" fill="#062542"/>
<path d="M51.46 1.3695H32.7932L32.3996 0.805551L32.2886 0.604141V0.543718C32.2267 0.46518 32.1593 0.391142 32.0868 0.322167C31.9136 0.162665 31.7013 0.0515189 31.4713 -8.87848e-05C31.2617 -0.0523045 31.0425 -0.0520488 30.833 0.000655852C30.6235 0.0533605 30.4303 0.156882 30.2706 0.302026C30.1926 0.365427 30.1246 0.440103 30.0688 0.523577C30.0367 0.560148 30.0096 0.600779 29.9881 0.644423L29.9174 0.745128C29.7358 1.0271 29.5441 1.30908 29.3524 1.59105C28.5855 2.71894 27.7682 3.8267 26.9207 4.91431C26.507 5.45812 26.0731 5.99185 25.6392 6.52559C25.2053 7.05933 24.7614 7.53264 24.3073 8.08652C23.3992 9.09357 22.4608 10.1006 21.5022 11.1077C20.5436 12.1147 19.4842 13.0009 18.4752 13.8771C17.4447 14.7532 16.3704 15.5767 15.2564 16.3443C14.1607 17.0993 13.0107 17.7725 11.8156 18.3584C10.6586 18.9327 9.44891 19.3947 8.20333 19.7381C7.58675 19.9112 6.95994 20.0457 6.32656 20.1409C5.70514 20.1859 5.08128 20.1859 4.45987 20.1409H4.29843C4.0402 20.1378 3.78406 20.1874 3.54572 20.2866C3.30737 20.3858 3.09182 20.5326 2.91229 20.7178C2.73276 20.9031 2.59302 21.123 2.50164 21.3641C2.41026 21.6051 2.36916 21.8623 2.38085 22.1198C2.39255 22.3772 2.45679 22.6296 2.56966 22.8614C2.68252 23.0933 2.84162 23.2996 3.03721 23.4679C3.2328 23.6362 3.46076 23.7629 3.70713 23.8402C3.95349 23.9174 4.21307 23.9437 4.46996 23.9173C5.27655 23.8854 6.07944 23.7911 6.87143 23.6354C7.64985 23.485 8.41819 23.2865 9.17199 23.0412C10.624 22.5628 12.0236 21.9386 13.3493 21.1782C15.9012 19.7229 18.272 17.9719 20.4125 15.9616C20.9372 15.4682 21.4215 14.9546 21.9664 14.4712C22.2186 14.2094 22.4709 13.9576 22.713 13.6958L23.4597 12.9304C24.4687 11.9234 25.3769 10.8156 26.285 9.71794C28.0636 7.61783 29.7308 5.42617 31.2796 3.15198L31.8447 3.87705C32.6822 5.03516 33.6105 6.04221 34.5589 7.10968C35.5074 8.17715 36.4862 9.19427 37.5053 10.1913C38.5244 11.1882 39.5233 12.1349 40.6433 13.0714C42.8234 14.9575 45.19 16.6176 47.7065 18.0261C48.9744 18.745 50.2929 19.371 51.6517 19.8992C52.3379 20.161 53.0442 20.3927 53.7505 20.5941C54.4568 20.7955 54.8604 20.8861 55.4255 21.007V31.0775H31.209C31.1354 31.067 31.0606 31.067 30.987 31.0775L22.4204 22.7391C22.316 22.6428 22.1791 22.5894 22.037 22.5894C21.8949 22.5894 21.758 22.6428 21.6536 22.7391L12.8448 31.0573H1.18055C0.869192 31.0573 0.570432 31.1801 0.349323 31.3988C0.128214 31.6176 0.00266121 31.9147 0 32.2255L0 51.2889C0.00267051 53.5984 0.923085 55.8125 2.55933 57.4456C4.19557 59.0786 6.41403 59.9972 8.72802 59.9999H42.3788C42.6744 59.9727 42.9491 59.8362 43.1491 59.6173C43.3491 59.3984 43.46 59.1129 43.46 58.8166C43.46 58.5204 43.3491 58.2348 43.1491 58.0159C42.9491 57.797 42.6744 57.6606 42.3788 57.6333H8.72802C7.04116 57.6333 5.42324 56.9652 4.2295 55.7757C3.03576 54.5862 2.36378 52.9725 2.36111 51.2889V44.0583L2.55282 43.9274L2.65372 43.8468L21.8756 27.7945L53.3065 55.589H53.357C53.5472 55.7437 53.7873 55.8239 54.0325 55.8146C54.2776 55.8053 54.511 55.7072 54.6889 55.5387C54.8619 55.3525 54.9581 55.1079 54.9581 54.8539C54.9581 54.5999 54.8619 54.3553 54.6889 54.1691L33.2977 33.4138H56.5657C56.7224 33.4151 56.8778 33.3853 57.0229 33.3261C57.168 33.2668 57.2997 33.1794 57.4106 33.0687C57.5214 32.9581 57.6091 32.8266 57.6684 32.6818C57.7278 32.537 57.7577 32.3819 57.7563 32.2255V7.64342C57.7536 5.97854 57.0891 4.38277 55.9086 3.20647C54.7281 2.03017 53.1282 1.3695 51.46 1.3695ZM2.36111 40.866V33.4138H10.2617L2.36111 40.866ZM54.4165 17.9657C53.7808 17.8146 53.1552 17.6333 52.5296 17.4219C51.2709 16.9907 50.0465 16.4655 48.8668 15.8509C46.4836 14.5659 44.2386 13.0407 42.167 11.299C41.1579 10.4329 40.1489 9.50646 39.1399 8.54976C38.1309 7.59306 37.1925 6.60615 36.3247 5.58904C35.7698 4.97474 35.235 4.34029 34.7103 3.70585L51.46 3.72599C52.4993 3.72866 53.495 4.14256 54.229 4.87693C54.9629 5.6113 55.375 6.60619 55.375 7.64342V18.1268L54.4165 17.9657Z" fill="#062542"/>
<path d="M71.8522 44.0985C70.8432 44.0985 70.2882 44.5718 70.2882 45.2063C70.2882 45.8407 71.045 46.2133 71.7614 46.3946L72.5686 46.6061C73.8501 46.9082 75.0811 47.6131 75.0811 49.0734C75.0811 50.5336 73.9005 51.6111 71.832 51.6111C69.7636 51.6111 68.5628 50.6041 68.4922 48.9525H70.0158C70.0864 49.8589 70.8432 50.2919 71.822 50.2919C72.8007 50.2919 73.5373 49.7984 73.5373 49.0633C73.5373 48.3281 72.9117 48.0562 71.9834 47.8649L70.9744 47.6131C69.5617 47.2506 68.6839 46.5356 68.6839 45.307C68.6839 43.7863 70.036 42.7793 71.8421 42.7793C73.6483 42.7793 74.8692 43.7863 74.9196 45.2566H73.4767C73.4061 44.5215 72.7805 44.0985 71.8522 44.0985Z" fill="#062542"/>
<path d="M76.0196 48.3383C75.9757 47.9161 76.0214 47.4894 76.1537 47.086C76.286 46.6827 76.502 46.3116 76.7876 45.9972C77.0732 45.6827 77.422 45.4318 77.8112 45.2608C78.2004 45.0898 78.6214 45.0027 79.0467 45.0049C80.6208 45.0049 81.9829 46.012 81.9829 48.2476V48.7209H77.5231C77.4997 48.9469 77.5253 49.1752 77.5983 49.3904C77.6712 49.6055 77.7898 49.8025 77.9458 49.9678C78.1019 50.1331 78.2918 50.2629 78.5027 50.3484C78.7136 50.4339 78.9404 50.473 79.1678 50.4631C79.4257 50.4885 79.6856 50.4394 79.9164 50.3215C80.1471 50.2037 80.3391 50.0221 80.4694 49.7985H81.9628C81.7851 50.3854 81.4075 50.8918 80.8953 51.2302C80.383 51.5686 79.7684 51.7176 79.1577 51.6515C78.7251 51.6694 78.2936 51.5944 77.8925 51.4317C77.4914 51.269 77.1299 51.0223 76.8325 50.7083C76.535 50.3942 76.3086 50.0202 76.1683 49.6113C76.0281 49.2025 75.9774 48.7683 76.0196 48.3383ZM80.5703 47.6937C80.5815 47.4954 80.5514 47.2969 80.482 47.1107C80.4126 46.9245 80.3054 46.7546 80.167 46.6118C80.0286 46.469 79.8622 46.3563 79.678 46.2808C79.4939 46.2053 79.2961 46.1686 79.0971 46.1731C78.8944 46.1704 78.6931 46.2077 78.5048 46.2826C78.3165 46.3576 78.1448 46.4689 77.9996 46.6101C77.8543 46.7513 77.7384 46.9197 77.6584 47.1056C77.5783 47.2916 77.5358 47.4914 77.5332 47.6937H80.5703Z" fill="#062542"/>
<path d="M83.1936 45.0453H84.6668V46.1128H84.7576C84.8575 45.7701 85.0678 45.4698 85.3561 45.2586C85.6443 45.0474 85.9943 44.937 86.3518 44.9446C86.5333 44.9338 86.7152 44.9338 86.8967 44.9446V46.3444C86.6673 46.2774 86.4294 46.2435 86.1904 46.2437C85.9995 46.2365 85.8091 46.269 85.6314 46.3389C85.4536 46.4089 85.2923 46.5149 85.1577 46.6502C85.023 46.7855 84.918 46.9473 84.8491 47.1251C84.7802 47.303 84.7491 47.4932 84.7576 47.6838V51.4803H83.1936V45.0453Z" fill="#062542"/>
<path d="M87.3004 48.3383C87.2564 47.9161 87.3021 47.4894 87.4344 47.086C87.5667 46.6827 87.7827 46.3116 88.0683 45.9972C88.3539 45.6827 88.7027 45.4318 89.092 45.2608C89.4812 45.0898 89.9022 45.0027 90.3274 45.0049C91.9015 45.0049 93.2738 46.012 93.2738 48.2476V48.7209H88.7937C88.772 48.9465 88.7989 49.1742 88.8724 49.3886C88.946 49.603 89.0646 49.7992 89.2203 49.9642C89.3761 50.1291 89.5653 50.259 89.7754 50.345C89.9854 50.4311 90.2115 50.4713 90.4384 50.4631C90.6976 50.4868 90.9582 50.437 91.1902 50.3194C91.4223 50.2018 91.6164 50.0213 91.7502 49.7985H93.2334C93.0558 50.3854 92.6782 50.8918 92.1659 51.2302C91.6537 51.5686 91.0391 51.7176 90.4284 51.6515C89.9966 51.6679 89.5663 51.5919 89.1664 51.4285C88.7665 51.2651 88.4063 51.0182 88.1099 50.7043C87.8136 50.3905 87.5881 50.0169 87.4484 49.6088C87.3088 49.2007 87.2583 48.7675 87.3004 48.3383ZM91.841 47.6937C91.8522 47.4954 91.8221 47.2969 91.7527 47.1107C91.6833 46.9245 91.576 46.7546 91.4377 46.6118C91.2993 46.469 91.1328 46.3563 90.9487 46.2808C90.7646 46.2053 90.5668 46.1686 90.3678 46.1731C89.9642 46.1675 89.5742 46.3188 89.2804 46.5951C88.9866 46.8714 88.8121 47.251 88.7937 47.6535L91.841 47.6937Z" fill="#062542"/>
<path d="M95.988 51.4802H94.4644V45.0451H95.9173V46.1327H95.9981C96.1517 45.7684 96.4146 45.4605 96.7506 45.2513C97.0867 45.0421 97.4794 44.9419 97.8748 44.9646C98.1867 44.9512 98.4977 45.0065 98.7858 45.1265C99.0739 45.2464 99.332 45.4282 99.5419 45.6588C99.7518 45.8894 99.9083 46.1633 100 46.461C100.092 46.7587 100.118 47.0729 100.075 47.3815V51.4802H98.6114V47.6131C98.6373 47.4368 98.6234 47.2569 98.5708 47.0866C98.5182 46.9164 98.4282 46.7599 98.3074 46.6287C98.1866 46.4975 98.0379 46.3949 97.8723 46.3282C97.7068 46.2616 97.5284 46.2327 97.3502 46.2435C97.1597 46.2364 96.97 46.2705 96.794 46.3435C96.618 46.4165 96.4599 46.5265 96.3305 46.6662C96.2011 46.8059 96.1035 46.9718 96.0444 47.1526C95.9853 47.3334 95.966 47.5249 95.988 47.7138V51.4802Z" fill="#062542"/>
<path d="M101.457 43.303C101.445 43.1253 101.487 42.948 101.577 42.7943C101.667 42.6406 101.802 42.5176 101.963 42.4415C102.125 42.3653 102.305 42.3395 102.482 42.3674C102.658 42.3952 102.822 42.4755 102.952 42.5977C103.082 42.72 103.172 42.8784 103.21 43.0525C103.248 43.2265 103.233 43.408 103.167 43.5734C103.1 43.7387 102.985 43.8801 102.837 43.9792C102.688 44.0783 102.513 44.1304 102.335 44.1288C102.109 44.1343 101.89 44.0506 101.726 43.896C101.561 43.7414 101.465 43.5283 101.457 43.303ZM101.568 45.0452H103.092V51.4803H101.568V45.0452Z" fill="#062542"/>
<path d="M107.753 46.2033H106.482V49.5467C106.482 50.161 106.795 50.2919 107.168 50.2919H107.834V51.5205C107.554 51.5687 107.27 51.5889 106.986 51.5809C105.846 51.5809 104.968 51.0271 104.968 49.8186V46.2033H104.04V45.0452H104.938V43.5044H106.442V45.0452H107.713L107.753 46.2033Z" fill="#062542"/>
<path d="M109.045 53.857V52.6486H109.691C110.054 52.6486 110.367 52.6486 110.629 51.9235L110.76 51.5811L108.409 45.0151H109.983L111.477 49.8691H111.547L113.041 45.0151H114.645L112.062 52.2256C111.934 52.7183 111.639 53.1513 111.227 53.4507C110.814 53.7502 110.311 53.8973 109.802 53.8671C109.549 53.8802 109.297 53.8768 109.045 53.857Z" fill="#062542"/>
<path d="M118.58 42.9004H120.124V46.848H120.245L123.605 42.9004H125.492L122.172 46.7473L125.522 51.4805H123.665L121.082 47.7947L120.073 48.9225V51.4805H118.53L118.58 42.9004Z" fill="#062542"/>
<path d="M125.663 48.338C125.629 47.9124 125.683 47.4843 125.823 47.0806C125.962 46.6769 126.184 46.3065 126.474 45.9926C126.764 45.6787 127.116 45.4282 127.508 45.2569C127.9 45.0855 128.323 44.9971 128.751 44.9971C129.179 44.9971 129.602 45.0855 129.994 45.2569C130.386 45.4282 130.738 45.6787 131.028 45.9926C131.318 46.3065 131.54 46.6769 131.679 47.0806C131.819 47.4843 131.873 47.9124 131.839 48.338C131.873 48.7637 131.819 49.1918 131.679 49.5955C131.54 49.9992 131.318 50.3696 131.028 50.6835C130.738 50.9974 130.386 51.2479 129.994 51.4192C129.602 51.5906 129.179 51.679 128.751 51.679C128.323 51.679 127.9 51.5906 127.508 51.4192C127.116 51.2479 126.764 50.9974 126.474 50.6835C126.184 50.3696 125.962 49.9992 125.823 49.5955C125.683 49.1918 125.629 48.7637 125.663 48.338ZM130.305 48.338C130.305 47.1699 129.8 46.2232 128.761 46.2232C127.722 46.2232 127.197 47.1699 127.197 48.338C127.197 49.5062 127.712 50.4629 128.761 50.4629C129.81 50.4629 130.305 49.4659 130.305 48.2776V48.338Z" fill="#062542"/>
<path d="M133.019 45.0451H134.482V46.1125H134.553C134.653 45.7699 134.863 45.4696 135.151 45.2584C135.439 45.0472 135.789 44.9368 136.147 44.9444C136.328 44.9333 136.51 44.9333 136.692 44.9444V46.3442C136.466 46.2771 136.231 46.2432 135.996 46.2435C135.806 46.2323 135.616 46.2605 135.437 46.3261C135.259 46.3917 135.095 46.4934 134.958 46.6248C134.821 46.7562 134.712 46.9145 134.639 47.0897C134.566 47.265 134.529 47.4534 134.533 47.6433V51.4398H133.019V45.0451Z" fill="#062542"/>
<path d="M137.116 48.3383C137.072 47.9161 137.118 47.4894 137.25 47.086C137.382 46.6827 137.598 46.3116 137.884 45.9972C138.169 45.6827 138.518 45.4318 138.907 45.2608C139.297 45.0898 139.718 45.0027 140.143 45.0049C141.727 45.0049 143.089 46.012 143.089 48.2476V48.7209H138.589C138.573 48.9451 138.605 49.1701 138.682 49.381C138.76 49.592 138.881 49.7842 139.039 49.945C139.196 50.1058 139.385 50.2315 139.595 50.3139C139.804 50.3962 140.029 50.4334 140.254 50.4229C140.512 50.447 140.771 50.3973 141.002 50.2796C141.232 50.1619 141.424 49.981 141.556 49.7582H143.039C142.863 50.3424 142.489 50.8472 141.981 51.1855C141.472 51.5238 140.862 51.6743 140.254 51.6112C139.825 51.6284 139.397 51.5544 138.999 51.3941C138.601 51.2337 138.242 50.9907 137.945 50.6812C137.648 50.3717 137.421 50.0027 137.278 49.5988C137.135 49.1948 137.08 48.7651 137.116 48.3383ZM141.666 47.6937C141.676 47.4958 141.645 47.2979 141.575 47.1124C141.505 46.9268 141.398 46.7576 141.26 46.6151C141.122 46.4726 140.956 46.3598 140.772 46.2838C140.589 46.2078 140.392 46.1701 140.193 46.1731C139.991 46.1704 139.789 46.2077 139.601 46.2826C139.413 46.3576 139.241 46.4689 139.096 46.6101C138.951 46.7513 138.835 46.9197 138.755 47.1056C138.675 47.2916 138.632 47.4914 138.629 47.6937H141.666Z" fill="#062542"/>
<path d="M146.389 47.7242L148.043 47.6235V47.1199C148.043 46.4754 147.62 46.1129 146.873 46.1129C146.613 46.077 146.349 46.1342 146.127 46.2744C145.906 46.4145 145.741 46.6284 145.662 46.8782H144.209C144.31 45.7906 145.299 44.9648 146.913 44.9648C148.134 44.9648 149.547 45.4583 149.547 47.1803V51.4805H148.094V50.5942C147.905 50.9234 147.627 51.1925 147.291 51.3707C146.955 51.5488 146.576 51.6288 146.197 51.6013C145.923 51.636 145.644 51.6114 145.38 51.5291C145.116 51.4469 144.873 51.3089 144.667 51.1245C144.461 50.9401 144.298 50.7137 144.187 50.4606C144.077 50.2075 144.023 49.9337 144.028 49.6577C143.987 48.2176 145.188 47.7947 146.389 47.7242ZM146.54 50.4935C146.728 50.5115 146.918 50.4909 147.098 50.4328C147.277 50.3747 147.443 50.2805 147.585 50.1559C147.727 50.0313 147.842 49.8791 147.922 49.7085C148.003 49.5379 148.048 49.3527 148.054 49.1642V48.6305L146.631 48.7312C145.904 48.7916 145.45 49.0837 145.45 49.6577C145.45 50.2317 145.904 50.4935 146.54 50.4935Z" fill="#062542"/>
<path d="M153.855 45.0452H155.389V46.1026H155.49C155.647 45.7489 155.907 45.4509 156.236 45.2478C156.566 45.0446 156.95 44.9459 157.337 44.9646C158.82 44.9646 160 46.1228 160 48.2678C160 50.4128 158.86 51.591 157.337 51.591C156.951 51.6092 156.569 51.5114 156.24 51.3103C155.91 51.1092 155.649 50.8141 155.49 50.4631H155.389V53.8972H153.866L153.855 45.0452ZM156.883 50.3524C157.892 50.3524 158.416 49.4762 158.416 48.2577C158.416 47.0392 157.892 46.1932 156.883 46.1932C155.874 46.1932 155.349 47.009 155.349 48.2577C155.349 49.5064 155.884 50.3524 156.872 50.3524H156.883Z" fill="#062542"/>
<path d="M163.239 47.7242L164.884 47.6235V47.1199C164.884 46.4754 164.47 46.1129 163.724 46.1129C163.464 46.077 163.2 46.1342 162.978 46.2744C162.756 46.4145 162.591 46.6284 162.513 46.8782H161.05C161.161 45.7906 162.15 44.9648 163.764 44.9648C164.985 44.9648 166.398 45.4583 166.398 47.1803V51.4805H164.945V50.5942C164.755 50.925 164.475 51.1952 164.137 51.3735C163.8 51.5517 163.418 51.6307 163.037 51.6013C162.764 51.6345 162.486 51.6087 162.224 51.5257C161.961 51.4427 161.719 51.3044 161.514 51.1202C161.31 50.936 161.147 50.7102 161.037 50.4579C160.928 50.2056 160.873 49.9327 160.878 49.6577C160.838 48.2176 162.039 47.7947 163.239 47.7242ZM163.391 50.4935C163.579 50.5115 163.768 50.4909 163.948 50.4328C164.128 50.3747 164.294 50.2805 164.436 50.1559C164.578 50.0313 164.692 49.8791 164.773 49.7085C164.853 49.5379 164.898 49.3527 164.904 49.1642V48.6305L163.471 48.7312C162.755 48.7916 162.301 49.0837 162.301 49.6577C162.301 50.2317 162.755 50.4935 163.391 50.4935Z" fill="#062542"/>
<path d="M171.039 51.4805H169.374L167.073 45.0454H168.688L170.171 49.8289H170.242L171.735 45.0454H173.339L171.039 51.4805Z" fill="#062542"/>
<path d="M174.187 43.303C174.177 43.1279 174.22 42.9538 174.31 42.8033C174.4 42.6527 174.533 42.5326 174.693 42.4585C174.852 42.3844 175.03 42.3597 175.203 42.3876C175.377 42.4155 175.538 42.4947 175.666 42.615C175.794 42.7353 175.882 42.8911 175.921 43.0623C175.959 43.2335 175.945 43.4122 175.88 43.5752C175.815 43.7382 175.703 43.8782 175.558 43.9768C175.412 44.0755 175.241 44.1284 175.065 44.1287C174.839 44.1342 174.62 44.0505 174.456 43.8959C174.292 43.7413 174.195 43.5282 174.187 43.303ZM174.288 45.0451H175.812V51.4802H174.288V45.0451Z" fill="#062542"/>
<path d="M178.778 51.4805H177.265V42.9004H178.778V51.4805Z" fill="#062542"/>
<path d="M180.12 43.303C180.11 43.1279 180.153 42.9538 180.243 42.8033C180.333 42.6527 180.466 42.5326 180.626 42.4585C180.785 42.3844 180.963 42.3597 181.136 42.3876C181.31 42.4155 181.471 42.4947 181.599 42.615C181.726 42.7353 181.815 42.8911 181.853 43.0623C181.892 43.2335 181.877 43.4122 181.813 43.5752C181.748 43.7382 181.636 43.8782 181.49 43.9768C181.345 44.0755 181.174 44.1284 180.998 44.1287C180.772 44.1342 180.553 44.0505 180.389 43.8959C180.225 43.7413 180.128 43.5282 180.12 43.303ZM180.231 45.0451H181.745V51.4802H180.231V45.0451Z" fill="#062542"/>
<path d="M182.925 48.338C182.891 47.9124 182.945 47.4843 183.084 47.0806C183.224 46.6769 183.446 46.3065 183.736 45.9926C184.026 45.6787 184.378 45.4282 184.77 45.2569C185.162 45.0855 185.585 44.9971 186.013 44.9971C186.441 44.9971 186.864 45.0855 187.256 45.2569C187.648 45.4282 188 45.6787 188.29 45.9926C188.58 46.3065 188.802 46.6769 188.941 47.0806C189.081 47.4843 189.135 47.9124 189.1 48.338C189.135 48.7637 189.081 49.1918 188.941 49.5955C188.802 49.9992 188.58 50.3696 188.29 50.6835C188 50.9974 187.648 51.2479 187.256 51.4192C186.864 51.5906 186.441 51.679 186.013 51.679C185.585 51.679 185.162 51.5906 184.77 51.4192C184.378 51.2479 184.026 50.9974 183.736 50.6835C183.446 50.3696 183.224 49.9992 183.084 49.5955C182.945 49.1918 182.891 48.7637 182.925 48.338ZM187.567 48.338C187.567 47.1699 187.052 46.2232 186.023 46.2232C184.994 46.2232 184.459 47.1699 184.459 48.338C184.459 49.5062 184.963 50.4629 186.023 50.4629C187.082 50.4629 187.567 49.4659 187.567 48.2776V48.338Z" fill="#062542"/>
<path d="M191.795 51.4803H190.271V45.0453H191.714V46.1329H191.795C191.949 45.7563 192.221 45.4393 192.57 45.2288C192.919 45.0184 193.326 44.9258 193.732 44.9647C194.044 44.9517 194.355 45.007 194.644 45.1269C194.932 45.2468 195.191 45.4284 195.402 45.6587C195.612 45.8891 195.77 46.1628 195.863 46.4604C195.956 46.7581 195.983 47.0725 195.942 47.3817V51.4803H194.438V47.6133C194.464 47.437 194.45 47.2571 194.398 47.0868C194.345 46.9165 194.255 46.7601 194.134 46.6289C194.013 46.4977 193.865 46.395 193.699 46.3284C193.534 46.2618 193.355 46.2328 193.177 46.2437C192.987 46.2366 192.797 46.2707 192.621 46.3437C192.445 46.4166 192.287 46.5267 192.157 46.6664C192.028 46.806 191.93 46.9719 191.871 47.1528C191.812 47.3336 191.793 47.525 191.815 47.714L191.795 51.4803Z" fill="#062542"/>
<path d="M77.7955 28.409C75.6003 28.409 73.4544 27.7593 71.6291 26.5421C69.8039 25.3249 68.3812 23.5948 67.5412 21.5706C66.7011 19.5465 66.4813 17.3192 66.9096 15.1703C67.3378 13.0215 68.3949 11.0477 69.9472 9.49845C71.4994 7.94923 73.4771 6.89419 75.6302 6.46676C77.7832 6.03933 80.0149 6.25871 82.043 7.09714C84.0711 7.93557 85.8046 9.35541 87.0242 11.1771C88.2438 12.9988 88.8947 15.1405 88.8947 17.3315C88.8947 20.2694 87.7254 23.087 85.6438 25.1645C83.5623 27.2419 80.7392 28.409 77.7955 28.409ZM77.7955 8.88231C76.1267 8.88231 74.4954 9.37633 73.108 10.3019C71.7206 11.2274 70.6394 12.5428 70.0012 14.0818C69.3631 15.6207 69.1966 17.314 69.5229 18.9474C69.8492 20.5808 70.6536 22.0809 71.8344 23.2579C73.0151 24.4349 74.5191 25.2359 76.156 25.5596C77.793 25.8833 79.4894 25.7152 81.0306 25.0764C82.5718 24.4377 83.8885 23.357 84.8142 21.9712C85.7399 20.5854 86.2329 18.9567 86.2309 17.2912C86.2256 15.0609 85.3348 12.9236 83.7537 11.3475C82.1727 9.77143 80.0302 8.88497 77.7955 8.88231Z" fill="#062542"/>
<path d="M92.0025 36.9485C91.6439 36.9485 91.3 36.8063 91.0464 36.5532C90.7928 36.3002 90.6504 35.9569 90.6504 35.599V7.61312C90.6504 7.25522 90.7928 6.91199 91.0464 6.65892C91.3 6.40585 91.6439 6.26367 92.0025 6.26367C92.3611 6.26367 92.705 6.40585 92.9586 6.65892C93.2121 6.91199 93.3546 7.25522 93.3546 7.61312V18.4792H97.3906C97.7492 18.4792 98.0932 18.6214 98.3467 18.8744C98.6003 19.1275 98.7427 19.4707 98.7427 19.8286C98.7427 20.1865 98.6003 20.5298 98.3467 20.7828C98.0932 21.0359 97.7492 21.1781 97.3906 21.1781H93.3546V35.599C93.3546 35.9569 93.2121 36.3002 92.9586 36.5532C92.705 36.8063 92.3611 36.9485 92.0025 36.9485Z" fill="#062542"/>
<path d="M159.264 37.0088C158.905 37.0088 158.561 36.8667 158.308 36.6136C158.054 36.3605 157.912 36.0173 157.912 35.6594V7.66341C157.912 7.30552 158.054 6.96228 158.308 6.70921C158.561 6.45614 158.905 6.31396 159.264 6.31396C159.622 6.31396 159.966 6.45614 160.22 6.70921C160.473 6.96228 160.616 7.30552 160.616 7.66341V18.741H164.652C164.839 18.7248 165.027 18.7476 165.204 18.8078C165.381 18.868 165.544 18.9644 165.682 19.0908C165.821 19.2172 165.931 19.3709 166.006 19.5421C166.082 19.7133 166.121 19.8983 166.121 20.0854C166.121 20.2724 166.082 20.4574 166.006 20.6286C165.931 20.7998 165.821 20.9535 165.682 21.0799C165.544 21.2063 165.381 21.3027 165.204 21.3629C165.027 21.4231 164.839 21.4459 164.652 21.4298H160.616V35.6594C160.616 36.0173 160.473 36.3605 160.22 36.6136C159.966 36.8667 159.622 37.0088 159.264 37.0088Z" fill="#062542"/>
<path d="M152.483 29.0937H136.5C135.866 29.0937 135.258 28.8423 134.809 28.3947C134.361 27.9471 134.109 27.34 134.109 26.707V9.26494C134.109 8.63102 134.361 8.02291 134.809 7.57371C135.257 7.12452 135.865 6.87083 136.5 6.86816H152.483C153.118 6.87083 153.727 7.12452 154.175 7.57371C154.623 8.02291 154.875 8.63102 154.875 9.26494V26.707C154.875 27.34 154.623 27.9471 154.174 28.3947C153.726 28.8423 153.117 29.0937 152.483 29.0937ZM136.813 26.4049H152.18V9.56706H136.813V26.4049Z" fill="#062542"/>
<path d="M128.307 36.8479H103.415C103.105 36.8479 102.797 36.787 102.511 36.6685C102.225 36.5501 101.964 36.3765 101.745 36.1577C101.526 35.9389 101.352 35.6791 101.233 35.3932C101.115 35.1073 101.053 34.8009 101.053 34.4914V27.9053C101.053 27.2803 101.302 26.681 101.745 26.239C102.188 25.7971 102.788 25.5488 103.415 25.5488H128.307C128.933 25.5488 129.534 25.7971 129.977 26.239C130.419 26.681 130.668 27.2803 130.668 27.9053V34.4914C130.668 34.8009 130.607 35.1073 130.488 35.3932C130.37 35.6791 130.196 35.9389 129.977 36.1577C129.757 36.3765 129.497 36.5501 129.211 36.6685C128.924 36.787 128.617 36.8479 128.307 36.8479ZM103.748 34.149H127.964V28.1974H103.748V34.149Z" fill="#062542"/>
<path d="M130.537 24.7129H101.185C100.998 24.729 100.81 24.7063 100.632 24.646C100.455 24.5858 100.292 24.4894 100.154 24.363C100.016 24.2366 99.9056 24.0829 99.8302 23.9117C99.7548 23.7405 99.7158 23.5555 99.7158 23.3685C99.7158 23.1815 99.7548 22.9965 99.8302 22.8253C99.9056 22.6541 100.016 22.5004 100.154 22.374C100.292 22.2475 100.455 22.1512 100.632 22.0909C100.81 22.0307 100.998 22.0079 101.185 22.0241H130.537C130.724 22.0079 130.912 22.0307 131.089 22.0909C131.267 22.1512 131.429 22.2475 131.568 22.374C131.706 22.5004 131.816 22.6541 131.891 22.8253C131.967 22.9965 132.006 23.1815 132.006 23.3685C132.006 23.5555 131.967 23.7405 131.891 23.9117C131.816 24.0829 131.706 24.2366 131.568 24.363C131.429 24.4894 131.267 24.5858 131.089 24.646C130.912 24.7063 130.724 24.729 130.537 24.7129Z" fill="#062542"/>
<path d="M129.639 21.1478H105.856C103.031 21.1478 100.72 18.5093 100.72 15.2566V13.887C100.72 13.5291 100.863 13.1858 101.116 12.9328C101.37 12.6797 101.714 12.5375 102.073 12.5375H128.247V10.5838C128.247 9.64729 127.692 8.85172 127.036 8.85172H104.646C104.287 8.85172 103.943 8.70955 103.689 8.45648C103.436 8.20341 103.293 7.86017 103.293 7.50228C103.293 7.14438 103.436 6.80115 103.689 6.54808C103.943 6.29501 104.287 6.15283 104.646 6.15283H127.036C128.141 6.22793 129.173 6.73542 129.906 7.56507C130.639 8.39473 131.014 9.47953 130.951 10.5838V13.887C130.951 14.2449 130.808 14.5881 130.555 14.8412C130.301 15.0942 129.957 15.2364 129.599 15.2364H103.425C103.425 16.9685 104.535 18.4388 105.856 18.4388H129.639C129.826 18.4227 130.014 18.4455 130.191 18.5057C130.369 18.5659 130.531 18.6623 130.67 18.7887C130.808 18.9151 130.918 19.0688 130.993 19.24C131.069 19.4112 131.108 19.5962 131.108 19.7832C131.108 19.9703 131.069 20.1553 130.993 20.3265C130.918 20.4977 130.808 20.6514 130.67 20.7778C130.531 20.9042 130.369 21.0006 130.191 21.0608C130.014 21.121 129.826 21.1438 129.639 21.1277V21.1478Z" fill="#062542"/>
<path d="M195.75 21.1479H171.967C169.142 21.1479 166.842 18.4994 166.842 15.2567V13.8367C166.842 13.4788 166.984 13.1356 167.238 12.8825C167.491 12.6295 167.835 12.4873 168.194 12.4873H194.358V10.4732C194.358 9.53664 193.813 8.75114 193.157 8.75114H170.757C170.398 8.75114 170.054 8.60897 169.8 8.35589C169.547 8.10282 169.404 7.75959 169.404 7.40169C169.404 7.0438 169.547 6.70056 169.8 6.44749C170.054 6.19442 170.398 6.05225 170.757 6.05225H193.157C194.26 6.12734 195.289 6.63377 196.02 7.46153C196.751 8.2893 197.125 9.37154 197.062 10.4732V13.7864C197.068 13.9644 197.04 14.1421 196.977 14.309C196.915 14.476 196.82 14.6289 196.698 14.7591C196.576 14.8892 196.43 14.994 196.267 15.0673C196.104 15.1406 195.928 15.181 195.75 15.1862H169.515C169.515 16.9183 170.635 18.3886 171.947 18.3886H195.75C196.117 18.3886 196.468 18.534 196.727 18.7927C196.987 19.0514 197.132 19.4023 197.132 19.7683C197.132 20.1342 196.987 20.4851 196.727 20.7438C196.468 21.0026 196.117 21.1479 195.75 21.1479Z" fill="#062542"/>
<path d="M181.997 36.9484C181.817 36.9524 181.638 36.9205 181.47 36.8544C181.303 36.7884 181.15 36.6897 181.021 36.564C180.892 36.4383 180.79 36.2881 180.72 36.1224C180.65 35.9567 180.614 35.7787 180.615 35.5989V24.7026H167.295C167.109 24.7188 166.921 24.696 166.743 24.6358C166.566 24.5756 166.403 24.4792 166.265 24.3528C166.127 24.2263 166.016 24.0727 165.941 23.9015C165.866 23.7303 165.827 23.5453 165.827 23.3582C165.827 23.1712 165.866 22.9862 165.941 22.815C166.016 22.6438 166.127 22.4901 166.265 22.3637C166.403 22.2373 166.566 22.1409 166.743 22.0807C166.921 22.0204 167.109 21.9977 167.295 22.0138H196.648C196.835 21.9977 197.023 22.0204 197.2 22.0807C197.377 22.1409 197.54 22.2373 197.678 22.3637C197.817 22.4901 197.927 22.6438 198.002 22.815C198.078 22.9862 198.117 23.1712 198.117 23.3582C198.117 23.5453 198.078 23.7303 198.002 23.9015C197.927 24.0727 197.817 24.2263 197.678 24.3528C197.54 24.4792 197.377 24.5756 197.2 24.6358C197.023 24.696 196.835 24.7188 196.648 24.7026H183.339V35.5989C183.339 35.9551 183.198 36.2968 182.946 36.5496C182.695 36.8024 182.354 36.9457 181.997 36.9484Z" fill="#062542"/>
</g>
<defs>
<clipPath id="clip0_114_2">
<rect width="198" height="60" fill="white"/>
</clipPath>
</defs>
</svg>
