<svg width="198" height="60" viewBox="0 0 198 60" fill="none" xmlns="http://www.w3.org/2000/svg">
<g clip-path="url(#clip0_33_104)">
<rect width="198" height="60" fill="#FEFAF5"/>
<path d="M42.3853 60H8.77982C3.93578 60 0 56.0738 0 51.2416V32.2148C0 31.6107 0.504587 31.0067 1.21101 31.0067H12.8165C13.422 31.0067 14.0275 31.5101 14.0275 32.2148C14.0275 32.8188 13.5229 33.4228 12.8165 33.4228H2.3211V51.2416C2.3211 54.7651 5.14679 57.5839 8.6789 57.5839H42.3853C42.9908 57.5839 43.5963 58.0873 43.5963 58.7919C43.5963 59.4966 42.9908 60 42.3853 60Z" fill="#062542"/>
<path d="M25.2295 34.8322H18.1653V46.3087H25.2295V34.8322Z" fill="#F2E1AB"/>
<path d="M25.3304 47.0134H18.2661C17.8625 47.0134 17.6606 46.7114 17.6606 46.4094V34.8322C17.6606 34.4295 17.9634 34.2282 18.2661 34.2282H25.3304C25.734 34.2282 25.9359 34.5302 25.9359 34.8322V46.3087C25.9359 46.7114 25.6331 47.0134 25.3304 47.0134ZM18.8717 45.7047H24.7249V35.4362H18.8717V45.7047Z" fill="#062542"/>
<path d="M31.5869 18.5235C34.095 18.5235 36.1282 16.4953 36.1282 13.9933C36.1282 11.4913 34.095 9.46309 31.5869 9.46309C29.0789 9.46309 27.0457 11.4913 27.0457 13.9933C27.0457 16.4953 29.0789 18.5235 31.5869 18.5235Z" fill="#F2E1AB"/>
<path d="M31.5871 19.1275C28.6605 19.1275 26.3394 16.8121 26.3394 13.8926C26.3394 10.9732 28.6605 8.65772 31.5871 8.65772C34.5137 8.65772 36.8348 10.9732 36.8348 13.8926C36.8348 16.8121 34.4127 19.1275 31.5871 19.1275ZM31.5871 10.0671C29.4678 10.0671 27.6513 11.7785 27.6513 13.9933C27.6513 16.2081 29.3669 17.9195 31.5871 17.9195C33.8072 17.9195 35.5228 16.2081 35.5228 13.9933C35.5228 11.7785 33.7063 10.0671 31.5871 10.0671Z" fill="#062542"/>
<path d="M51.4679 1.4094H32.7982C32.6972 1.20806 32.4954 1.00671 32.3945 0.906042L32.2936 0.604028V0.503357C32.1927 0.402686 32.1927 0.302015 32.0917 0.302015C31.8899 0.201344 31.789 0.100673 31.5872 1.43797e-06C31.1835 -0.10067 30.7798 1.43047e-06 30.4771 0.302015C30.3761 0.402686 30.3761 0.402686 30.2752 0.503357C30.1743 0.604028 30.1743 0.604028 30.1743 0.604028L30.0734 0.704699C29.8716 1.00671 29.6697 1.30873 29.4679 1.51007C28.6606 2.61745 27.8532 3.72483 27.0459 4.83222C26.6422 5.33557 26.2385 5.9396 25.7339 6.44295C25.2294 7.04698 24.8257 7.55034 24.3211 8.05369C23.4128 9.06041 22.5046 10.0671 21.4954 11.0738C20.4862 12.0805 19.4771 12.9866 18.4679 13.7919C17.4587 14.698 16.3486 15.5034 15.2385 16.3087C14.1284 17.1141 13.0183 17.7181 11.8073 18.3222C10.5963 18.9262 9.38532 19.3289 8.17431 19.7315C7.56881 19.9329 6.9633 20.0336 6.25688 20.1342C5.75229 20.1342 5.04587 20.2349 4.44037 20.1342H4.33945C3.33028 20.1342 2.52294 21.0403 2.52294 22.1477C2.52294 23.1544 3.43119 23.9597 4.54128 23.9597C5.34862 23.9597 6.15596 23.8591 6.9633 23.6577C7.77064 23.5571 8.47706 23.3557 9.2844 23.0537C10.7982 22.5503 12.1101 21.9463 13.422 21.2416C16.0459 19.7315 18.367 18.0201 20.4862 16.0067C20.9908 15.5034 21.4954 15 22 14.4966C22.3028 14.1946 22.5046 13.9933 22.7064 13.6913C22.9083 13.3893 23.211 13.1879 23.4128 12.8859C24.422 11.8792 25.3303 10.7718 26.2385 9.66443C27.9541 7.55034 29.6697 5.33557 31.1835 3.02014C31.3853 3.22148 31.5872 3.52349 31.789 3.72483C32.6972 4.83222 33.6055 5.9396 34.5138 6.94631C35.422 7.95302 36.4312 9.06041 37.4404 10.0671C38.4495 11.0738 39.4587 11.9799 40.5688 12.9866C42.6881 14.7987 45.0092 16.5101 47.633 17.9195C48.945 18.6242 50.2569 19.2282 51.5688 19.8322C52.2752 20.1342 52.9817 20.3356 53.6881 20.5369C54.1927 20.7383 54.7982 20.8389 55.4037 20.9396V31.0067H31.0826C30.9817 31.0067 30.9817 31.0067 30.8807 31.0067L22.3028 22.651C22.1009 22.4497 21.7982 22.4497 21.4954 22.651L12.7156 31.0067H1.21101C0.504587 31.0067 0 31.6107 0 32.2148V51.2416C0 56.0738 3.93578 60 8.77982 60H42.3853C42.9908 60 43.5963 59.4967 43.5963 58.792C43.5963 58.1879 43.0917 57.5839 42.3853 57.5839H8.77982C5.24771 57.5839 2.42202 54.7651 2.42202 51.2416V43.9933C2.52294 43.9933 2.52294 43.8926 2.62385 43.8926L2.72477 43.7919L21.8991 27.7852L53.3853 55.5705C53.789 55.8725 54.3945 55.8725 54.6973 55.4698C55.1009 55.0671 55.1009 54.4631 54.6973 54.0604L33.3028 33.4228H56.6147C57.2202 33.4228 57.8257 32.9195 57.8257 32.2148V7.65101C57.7248 4.22819 54.8991 1.4094 51.4679 1.4094ZM2.3211 40.8725V33.4228H10.1927L2.3211 40.8725ZM54.3945 17.9195C53.789 17.8188 53.0826 17.6175 52.4771 17.4161C51.2661 17.0134 50.055 16.5101 48.844 15.8054C46.5229 14.5973 44.2018 12.9866 42.1835 11.2752C41.1743 10.3691 40.1651 9.46309 39.156 8.55705C38.1468 7.65101 37.2385 6.6443 36.3303 5.63759C35.8257 5.03356 35.2202 4.42953 34.7156 3.72483H51.4679C53.5872 3.72483 55.4037 5.43624 55.4037 7.65101V18.1208C55.1009 18.1208 54.6973 18.0201 54.3945 17.9195Z" fill="#062542"/>
<path d="M71.8532 44.094C70.844 44.094 70.2385 44.5973 70.2385 45.2013C70.2385 45.906 71.0459 46.2081 71.7523 46.4094L72.5596 46.6107C73.8716 46.9128 75.0826 47.6175 75.0826 49.0269C75.0826 50.5369 73.8716 51.5436 71.8532 51.5436C69.8349 51.5436 68.6239 50.5369 68.5229 48.9262H70.0367C70.1376 49.8322 70.844 50.2349 71.8532 50.2349C72.8624 50.2349 73.5688 49.7316 73.5688 49.0269C73.5688 48.3222 72.9633 48.0201 72.0551 47.8188L71.0459 47.6175C69.633 47.2148 68.7248 46.5101 68.7248 45.302C68.7248 43.792 70.0367 42.7852 71.8532 42.7852C73.6697 42.7852 74.8807 43.792 74.9817 45.302H73.4679C73.4679 44.4966 72.7615 44.094 71.8532 44.094Z" fill="#062542"/>
<path d="M75.9907 48.3221C75.9907 46.3087 77.2017 45 79.0182 45C80.6329 45 81.9448 46.0067 81.9448 48.2215V48.7248H77.4036C77.4036 49.8322 78.11 50.4362 79.0182 50.4362C79.7247 50.4362 80.1283 50.1342 80.3302 49.7315H81.8439C81.5412 50.8389 80.532 51.5436 79.0182 51.5436C77.2017 51.5436 75.9907 50.3356 75.9907 48.3221ZM80.532 47.6174C80.532 46.7114 79.9265 46.1074 79.0182 46.1074C78.11 46.1074 77.5045 46.8121 77.4036 47.6174H80.532Z" fill="#062542"/>
<path d="M83.2568 45H84.7706V46.1074C84.9724 45.4027 85.5779 44.8993 86.3853 44.8993C86.5871 44.8993 86.7889 44.8993 86.8899 44.8993V46.3087C86.7889 46.3087 86.4862 46.3087 86.1834 46.3087C85.3761 46.3087 84.7706 46.9128 84.7706 47.7181V51.5436H83.2568V45Z" fill="#062542"/>
<path d="M87.2937 48.3221C87.2937 46.3087 88.5047 45 90.3212 45C91.9359 45 93.2478 46.0067 93.2478 48.2215V48.7248H88.8075C88.8075 49.8322 89.5139 50.4362 90.4221 50.4362C91.1286 50.4362 91.5322 50.1342 91.7341 49.7315H93.2478C92.9451 50.8389 91.9359 51.5436 90.4221 51.5436C88.5047 51.5436 87.2937 50.3356 87.2937 48.3221ZM91.835 47.6174C91.835 46.7114 91.2295 46.1074 90.3212 46.1074C89.413 46.1074 88.8075 46.8121 88.7065 47.6174H91.835Z" fill="#062542"/>
<path d="M95.9725 51.443H94.4587V45H95.8716V46.1074H95.9725C96.2753 45.4027 96.8808 44.8993 97.8899 44.8993C99.2019 44.8993 100.11 45.8054 100.11 47.3154V51.443H98.5964V47.6175C98.5964 46.7114 98.0918 46.2081 97.3853 46.2081C96.578 46.2081 95.9725 46.7114 95.9725 47.7181V51.443Z" fill="#062542"/>
<path d="M101.523 43.2886C101.523 42.8859 101.927 42.4832 102.431 42.4832C102.936 42.4832 103.339 42.8859 103.339 43.2886C103.339 43.7919 102.936 44.094 102.431 44.094C101.927 44.094 101.523 43.7919 101.523 43.2886ZM101.624 45H103.138V51.443H101.624V45Z" fill="#062542"/>
<path d="M107.78 46.2081H106.468V49.5302C106.468 50.1342 106.771 50.2349 107.174 50.2349C107.376 50.2349 107.679 50.2349 107.881 50.2349V51.443C107.679 51.443 107.376 51.5436 107.073 51.5436C105.963 51.5436 105.055 50.9396 105.055 49.7315V46.1074H104.147V44.8993H105.055V43.3893H106.569V44.8993H107.881V46.2081H107.78Z" fill="#062542"/>
<path d="M109.092 53.8591V52.651C109.294 52.651 109.495 52.651 109.697 52.651C110.101 52.651 110.404 52.651 110.605 51.9463L110.706 51.6443L108.385 45.1007H110L111.514 49.9329H111.615L113.128 45.1007H114.743L112.119 52.349C111.716 53.3557 111.11 53.9597 109.899 53.9597C109.596 53.8591 109.294 53.8591 109.092 53.8591Z" fill="#062542"/>
<path d="M118.578 42.8859H120.092V46.8121H120.193L123.523 42.8859H125.44L122.11 46.7114L125.44 51.4429H123.624L121 47.7181L119.991 48.8255V51.3423H118.477V42.8859H118.578Z" fill="#062542"/>
<path d="M125.642 48.3221C125.642 46.3087 126.853 45 128.771 45C130.688 45 131.899 46.3087 131.899 48.3221C131.899 50.3356 130.688 51.6443 128.771 51.6443C126.853 51.5436 125.642 50.2349 125.642 48.3221ZM130.285 48.2215C130.285 47.0134 129.78 46.1074 128.771 46.1074C127.762 46.1074 127.156 47.0134 127.156 48.2215C127.156 49.4295 127.661 50.3356 128.771 50.3356C129.78 50.3356 130.285 49.4295 130.285 48.2215Z" fill="#062542"/>
<path d="M133.009 45H134.523V46.1074H134.624C134.826 45.4027 135.431 44.8993 136.239 44.8993C136.44 44.8993 136.642 44.8993 136.743 44.8993V46.3087C136.642 46.3087 136.34 46.2081 136.037 46.2081C135.229 46.2081 134.624 46.8121 134.624 47.6175V51.443H133.11V45H133.009Z" fill="#062542"/>
<path d="M137.147 48.3221C137.147 46.3087 138.358 45 140.174 45C141.789 45 143.101 46.0067 143.101 48.2215V48.7248H138.56C138.56 49.8322 139.266 50.4362 140.174 50.4362C140.881 50.4362 141.284 50.1342 141.486 49.7315H143C142.697 50.8389 141.688 51.5436 140.174 51.5436C138.358 51.5436 137.147 50.3356 137.147 48.3221ZM141.688 47.6174C141.688 46.7114 141.083 46.1074 140.174 46.1074C139.266 46.1074 138.66 46.8121 138.56 47.6174H141.688Z" fill="#062542"/>
<path d="M146.431 47.7181C146.835 47.7181 147.844 47.6174 148.046 47.6174V47.1141C148.046 46.5101 147.642 46.1074 146.835 46.1074C146.128 46.1074 145.725 46.4094 145.624 46.9127H144.211C144.312 45.8054 145.321 45 146.936 45C148.147 45 149.56 45.5034 149.56 47.2148V51.5436H148.147V50.6376C147.844 51.1409 147.239 51.6443 146.229 51.6443C145.018 51.6443 144.11 50.9396 144.11 49.7315C144.009 48.2215 145.22 47.8188 146.431 47.7181ZM146.532 50.4362C147.44 50.4362 148.046 49.8322 148.046 49.1275V48.6242L146.633 48.7248C145.927 48.8255 145.422 49.1275 145.422 49.6309C145.523 50.2349 145.927 50.4362 146.532 50.4362Z" fill="#062542"/>
<path d="M153.899 45H155.413V46.0067H155.514C155.716 45.5034 156.22 44.8993 157.33 44.8993C158.844 44.8993 159.954 46.1074 159.954 48.2215C159.954 50.3356 158.844 51.5436 157.33 51.5436C156.22 51.5436 155.716 50.8389 155.514 50.4362H155.413V53.8591H153.899V45ZM156.927 50.3356C157.936 50.3356 158.44 49.4295 158.44 48.2215C158.44 47.0134 157.936 46.2081 156.927 46.2081C155.918 46.2081 155.413 47.0134 155.413 48.2215C155.413 49.5302 155.918 50.3356 156.927 50.3356Z" fill="#062542"/>
<path d="M163.285 47.7181C163.688 47.7181 164.697 47.6174 164.899 47.6174V47.1141C164.899 46.5101 164.496 46.1074 163.688 46.1074C162.982 46.1074 162.578 46.4094 162.477 46.9127H161.064C161.165 45.8054 162.174 45 163.789 45C165 45 166.413 45.5034 166.413 47.2148V51.5436H165V50.6376C164.697 51.1409 164.092 51.6443 163.083 51.6443C161.872 51.6443 160.963 50.9396 160.963 49.7315C160.863 48.2215 162.074 47.8188 163.285 47.7181ZM163.385 50.4362C164.294 50.4362 164.899 49.8322 164.899 49.1275V48.6242L163.486 48.7248C162.78 48.8255 162.275 49.1275 162.275 49.6309C162.275 50.2349 162.78 50.4362 163.385 50.4362Z" fill="#062542"/>
<path d="M171.055 51.443H169.44L167.119 45H168.734L170.248 49.8322H170.349L171.863 45H173.477L171.055 51.443Z" fill="#062542"/>
<path d="M174.184 43.2886C174.184 42.8859 174.587 42.4832 175.092 42.4832C175.596 42.4832 176 42.8859 176 43.2886C176 43.7919 175.596 44.094 175.092 44.094C174.587 44.094 174.184 43.7919 174.184 43.2886ZM174.285 45H175.798V51.443H174.285V45Z" fill="#062542"/>
<path d="M178.826 51.4429H177.312V42.8859H178.826V51.4429Z" fill="#062542"/>
<path d="M180.138 43.2886C180.138 42.8859 180.541 42.4832 181.046 42.4832C181.551 42.4832 181.954 42.8859 181.954 43.2886C181.954 43.7919 181.551 44.094 181.046 44.094C180.541 44.094 180.138 43.7919 180.138 43.2886ZM180.239 45H181.752V51.443H180.239V45Z" fill="#062542"/>
<path d="M182.963 48.3221C182.963 46.3087 184.174 45 186.092 45C188.009 45 189.22 46.3087 189.22 48.3221C189.22 50.3356 188.009 51.6443 186.092 51.6443C184.174 51.5436 182.963 50.2349 182.963 48.3221ZM187.606 48.2215C187.606 47.0134 187.101 46.1074 186.092 46.1074C185.083 46.1074 184.477 47.0134 184.477 48.2215C184.477 49.4295 184.982 50.3356 186.092 50.3356C187.101 50.3356 187.606 49.4295 187.606 48.2215Z" fill="#062542"/>
<path d="M191.844 51.443H190.33V45H191.743V46.1074H191.844C192.147 45.4027 192.752 44.8993 193.762 44.8993C195.073 44.8993 195.982 45.8054 195.982 47.3154V51.443H194.468V47.6175C194.468 46.7114 193.963 46.2081 193.257 46.2081C192.45 46.2081 191.844 46.7114 191.844 47.7181V51.443Z" fill="#062542"/>
<path d="M77.8075 28.3893C71.6515 28.3893 66.7065 23.4564 66.7065 17.3154C66.7065 11.1745 71.6515 6.24161 77.8075 6.24161C83.9634 6.24161 88.9084 11.1745 88.9084 17.3154C88.9084 23.4564 83.9634 28.3893 77.8075 28.3893ZM77.8075 8.85906C73.1653 8.85906 69.3304 12.5839 69.3304 17.3154C69.3304 21.9463 73.0643 25.7718 77.8075 25.7718C82.5506 25.7718 86.2845 22.047 86.2845 17.3154C86.2845 12.6846 82.4497 8.85906 77.8075 8.85906Z" fill="#062542"/>
<path d="M92.0368 36.9463C91.3304 36.9463 90.7249 36.3423 90.7249 35.6376V7.65101C90.7249 6.94631 91.3304 6.34229 92.0368 6.34229C92.7432 6.34229 93.3487 6.94631 93.3487 7.65101V18.5235H97.3854C98.0918 18.5235 98.6973 19.1275 98.6973 19.8322C98.6973 20.5369 98.1927 21.1409 97.3854 21.1409H93.3487V35.5369C93.3487 36.3423 92.7432 36.9463 92.0368 36.9463Z" fill="#062542"/>
<path d="M159.248 36.9463C158.541 36.9463 157.936 36.3423 157.936 35.6376V7.65101C157.936 6.94631 158.541 6.34229 159.248 6.34229C159.954 6.34229 160.56 6.94631 160.56 7.65101V18.7248H164.596C165.303 18.7248 165.908 19.3289 165.908 20.0336C165.908 20.7383 165.303 21.3423 164.596 21.3423H160.56V35.6376C160.661 36.3423 160.055 36.9463 159.248 36.9463Z" fill="#062542"/>
<path d="M152.486 29.094H136.541C135.229 29.094 134.119 27.9866 134.119 26.6779V9.26175C134.119 7.95302 135.229 6.84564 136.541 6.84564H152.486C153.798 6.84564 154.908 7.95302 154.908 9.26175V26.6779C154.908 27.9866 153.798 29.094 152.486 29.094ZM136.844 26.3758H152.184V9.56376H136.844V26.3758Z" fill="#062542"/>
<path d="M128.367 36.8456H103.44C102.129 36.8456 101.119 35.8389 101.119 34.5302V27.9866C101.119 26.6779 102.129 25.6711 103.44 25.6711H128.367C129.679 25.6711 130.688 26.6779 130.688 27.9866V34.5302C130.688 35.7383 129.578 36.8456 128.367 36.8456ZM103.743 34.1275H127.963V28.1879H103.743V34.1275Z" fill="#062542"/>
<path d="M130.587 24.6644H101.22C100.514 24.6644 99.9084 24.0604 99.9084 23.3557C99.9084 22.651 100.514 22.047 101.22 22.047H130.587C131.294 22.047 131.899 22.651 131.899 23.3557C131.899 24.0604 131.294 24.6644 130.587 24.6644Z" fill="#062542"/>
<path d="M129.679 21.1409H105.863C103.037 21.1409 100.716 18.5235 100.716 15.2013V13.7919C100.716 13.0872 101.321 12.4832 102.028 12.4832H128.165V10.5705C128.165 9.66443 127.661 8.85906 126.954 8.85906H104.551C103.844 8.85906 103.239 8.25503 103.239 7.55034C103.239 6.84564 103.844 6.24161 104.551 6.24161H126.954C129.074 6.24161 130.89 8.25503 130.89 10.6711V13.9933C130.89 14.698 130.285 15.302 129.578 15.302H103.441C103.441 17.0134 104.551 18.5235 105.863 18.5235H129.679C130.386 18.5235 130.991 19.1275 130.991 19.8322C130.991 20.5369 130.386 21.1409 129.679 21.1409Z" fill="#062542"/>
<path d="M195.78 21.1409H171.963C169.137 21.1409 166.816 18.5235 166.816 15.2013V13.7919C166.816 13.0872 167.422 12.4832 168.128 12.4832H194.266V10.5705C194.266 9.66443 193.761 8.85906 193.055 8.85906H170.651C169.945 8.85906 169.339 8.25503 169.339 7.55034C169.339 6.84564 169.945 6.24161 170.651 6.24161H193.055C195.174 6.24161 196.991 8.25503 196.991 10.6711V13.9933C196.991 14.698 196.385 15.302 195.679 15.302H169.541C169.541 17.0134 170.651 18.5235 171.963 18.5235H195.78C196.486 18.5235 197.092 19.1275 197.092 19.8322C197.092 20.5369 196.486 21.1409 195.78 21.1409Z" fill="#062542"/>
<path d="M182.055 36.9463C181.349 36.9463 180.743 36.3423 180.743 35.6376V24.6644H167.422C166.716 24.6644 166.11 24.0604 166.11 23.3557C166.11 22.651 166.716 22.047 167.422 22.047H196.789C197.495 22.047 198.101 22.651 198.101 23.3557C198.101 24.0604 197.495 24.6644 196.789 24.6644H183.468V35.5369C183.367 36.3423 182.761 36.9463 182.055 36.9463Z" fill="#062542"/>
</g>
<defs>
<clipPath id="clip0_33_104">
<rect width="198" height="60" fill="white"/>
</clipPath>
</defs>
</svg>
